<svg width="94" height="97" viewBox="0 0 94 97" fill="none" xmlns="http://www.w3.org/2000/svg">
<path d="M47.14 8.8419H46.8599L46.8601 1H47.1401L47.14 8.8419Z" fill="#FECE00"/>
<path d="M76.8042 17.8842L76.6062 17.6862L74.2298 20.0626L74.4278 20.2606L76.8042 17.8842Z" fill="#FECE00"/>
<path d="M74.8013 15.9944L73.8736 17.0433C73.807 16.9844 73.7403 16.9258 73.6734 16.8674L74.5943 15.8125C74.6634 15.8728 74.7324 15.9335 74.8013 15.9944Z" fill="#FECE00"/>
<path d="M72.6832 14.2406L71.8257 15.3477C71.7557 15.2934 71.6855 15.2394 71.6152 15.1857L72.4653 14.073C72.5381 14.1286 72.6107 14.1845 72.6832 14.2406Z" fill="#FECE00"/>
<path d="M70.4563 12.6299L69.6733 13.7908C69.6 13.7414 69.5266 13.6923 69.4531 13.6434L70.2284 12.4773C70.3045 12.5279 70.3805 12.5788 70.4563 12.6299Z" fill="#FECE00"/>
<path d="M68.128 11.1688C68.0486 11.1225 67.9691 11.0765 67.8895 11.0309L67.8843 11.0398L67.8834 11.0393L66.203 13.9497L66.4456 14.0898L68.1259 11.1793L68.1229 11.1776L68.128 11.1688Z" fill="#FECE00"/>
<path d="M65.7074 9.86362L65.0838 11.1174C65.0045 11.0779 64.925 11.0388 64.8455 10.9999L65.4608 9.74199C65.5431 9.78224 65.6253 9.82279 65.7074 9.86362Z" fill="#FECE00"/>
<path d="M63.2071 8.72138L62.6675 10.0135C62.5859 9.97943 62.5041 9.94562 62.4223 9.91208L62.9534 8.61642C63.0381 8.65112 63.1227 8.6861 63.2071 8.72138Z" fill="#FECE00"/>
<path d="M60.6369 7.74612L60.1834 9.07094C60.0995 9.04222 60.0155 9.01378 59.9315 8.98562L60.3762 7.65784C60.4632 7.68697 60.5501 7.7164 60.6369 7.74612Z" fill="#FECE00"/>
<path d="M58.0076 6.94157L58.0058 6.94824L58.0081 6.94886L57.1383 10.195L56.8678 10.1225L57.7376 6.87638L57.7403 6.87709L57.742 6.87066C57.8306 6.894 57.9191 6.91764 58.0076 6.94157Z" fill="#FECE00"/>
<path d="M55.3319 6.31109L55.0554 7.68382C54.9686 7.66634 54.8818 7.64914 54.7949 7.63224L55.0623 6.25773C55.1522 6.27522 55.2421 6.29301 55.3319 6.31109Z" fill="#FECE00"/>
<path d="M52.6204 5.85663L52.434 7.24446C52.3462 7.23267 52.2583 7.22116 52.1704 7.20994L52.3476 5.82092C52.4386 5.83252 52.5295 5.84443 52.6204 5.85663Z" fill="#FECE00"/>
<path d="M49.885 5.57977L49.7894 6.97679C49.701 6.97074 49.6125 6.96497 49.5241 6.95951L49.6106 5.56189C49.7021 5.56755 49.7935 5.57351 49.885 5.57977Z" fill="#FECE00"/>
<path d="M44.3894 5.56189L44.4759 6.9595C44.3874 6.96498 44.299 6.97074 44.2106 6.97679L44.115 5.57977C44.2064 5.57351 44.2979 5.56755 44.3894 5.56189Z" fill="#FECE00"/>
<path d="M41.6523 5.82092L41.8296 7.20994C41.7417 7.22116 41.6538 7.23267 41.5659 7.24446L41.3796 5.85662C41.4705 5.84442 41.5614 5.83252 41.6523 5.82092Z" fill="#FECE00"/>
<path d="M38.9376 6.25773L39.2051 7.63223C39.1182 7.64914 39.0313 7.66634 38.9445 7.68382L38.6681 6.31109C38.7579 6.29301 38.8477 6.27522 38.9376 6.25773Z" fill="#FECE00"/>
<path d="M36.258 6.87066L36.2597 6.87708L36.2624 6.87636L37.1322 10.1225L36.8617 10.195L35.9919 6.94885L35.9942 6.94823L35.9924 6.94157C36.0809 6.91764 36.1694 6.894 36.258 6.87066Z" fill="#FECE00"/>
<path d="M33.6238 7.65784L34.0685 8.98562C33.9844 9.01377 33.9004 9.04222 33.8165 9.07094L33.363 7.74611C33.4499 7.7164 33.5368 7.68697 33.6238 7.65784Z" fill="#FECE00"/>
<path d="M31.0465 8.61641L31.5776 9.91207C31.4958 9.94561 31.4141 9.97943 31.3324 10.0135L30.7928 8.72138C30.8773 8.6861 30.9619 8.65111 31.0465 8.61641Z" fill="#FECE00"/>
<path d="M28.5392 9.74199L29.1545 10.9999C29.0749 11.0388 28.9955 11.0779 28.9162 11.1174L28.2926 9.86361C28.3747 9.82278 28.4569 9.78224 28.5392 9.74199Z" fill="#FECE00"/>
<path d="M26.1105 11.0309L26.1156 11.0398L26.1165 11.0393L27.7969 13.9497L27.5543 14.0897L25.8739 11.1793L25.8771 11.1775L25.872 11.1688C25.9514 11.1225 26.0309 11.0765 26.1105 11.0309Z" fill="#FECE00"/>
<path d="M23.7715 12.4773L24.5469 13.6434C24.4734 13.6923 24.4 13.7414 24.3267 13.7908L23.5437 12.6299C23.6195 12.5788 23.6955 12.5279 23.7715 12.4773Z" fill="#FECE00"/>
<path d="M21.5347 14.073L22.3848 15.1857C22.3145 15.2394 22.2443 15.2934 22.1742 15.3477L21.3168 14.2406C21.3893 14.1844 21.4619 14.1286 21.5347 14.073Z" fill="#FECE00"/>
<path d="M19.4057 15.8125C19.3366 15.8728 19.2675 15.9335 19.1987 15.9944L20.1264 17.0433C20.1929 16.9844 20.2597 16.9258 20.3266 16.8674L19.4057 15.8125Z" fill="#FECE00"/>
<path d="M17.3938 17.6862L17.1958 17.8842L19.5722 20.2606L19.7702 20.0626L17.3938 17.6862Z" fill="#FECE00"/>
<path d="M15.5039 19.6891L16.5528 20.6167C16.494 20.6833 16.4353 20.75 16.3769 20.8169L15.322 19.8961C15.3823 19.8269 15.443 19.7579 15.5039 19.6891Z" fill="#FECE00"/>
<path d="M13.7501 21.8072L14.8572 22.6645C14.8029 22.7346 14.7489 22.8048 14.6952 22.8751L13.5825 22.025C13.6381 21.9522 13.6939 21.8796 13.7501 21.8072Z" fill="#FECE00"/>
<path d="M12.1393 24.034L13.3003 24.817C13.2509 24.8902 13.2017 24.9636 13.1528 25.0372L11.9868 24.2618C12.0374 24.1857 12.0882 24.1098 12.1393 24.034Z" fill="#FECE00"/>
<path d="M10.5492 26.6058L10.5486 26.6068L13.4591 28.2871L13.5991 28.0446L10.6886 26.3642L10.6869 26.3673L10.6782 26.3622C10.6319 26.4416 10.5859 26.5211 10.5403 26.6007L10.5492 26.6058Z" fill="#FECE00"/>
<path d="M9.37298 28.7828L10.6268 29.4063C10.5873 29.4856 10.5482 29.5651 10.5093 29.6446L9.25135 29.0294C9.29161 28.9471 9.33215 28.8649 9.37298 28.7828Z" fill="#FECE00"/>
<path d="M8.23072 31.283L9.52289 31.8226C9.4888 31.9042 9.45498 31.9859 9.42145 32.0677L8.12576 31.5366C8.16046 31.452 8.19544 31.3674 8.23072 31.283Z" fill="#FECE00"/>
<path d="M7.25543 33.8531L8.58029 34.3066C8.55157 34.3905 8.52312 34.4745 8.49496 34.5586L7.16715 34.1138C7.19629 34.0268 7.22571 33.9399 7.25543 33.8531Z" fill="#FECE00"/>
<path d="M6.45087 36.4824L6.45753 36.4842L6.45815 36.4819L9.7044 37.3517L9.63191 37.6222L6.38566 36.7524L6.38638 36.7497L6.37995 36.748C6.4033 36.6594 6.42694 36.5709 6.45087 36.4824Z" fill="#FECE00"/>
<path d="M5.82037 39.158L7.19313 39.4345C7.17565 39.5213 7.15846 39.6081 7.14155 39.695L5.76701 39.4276C5.7845 39.3377 5.80229 39.2478 5.82037 39.158Z" fill="#FECE00"/>
<path d="M5.3659 41.8695L6.75376 42.0558C6.74197 42.1437 6.73046 42.2315 6.71924 42.3195L5.33019 42.1422C5.34179 42.0513 5.3537 41.9604 5.3659 41.8695Z" fill="#FECE00"/>
<path d="M5.08903 44.6048L6.48608 44.7004C6.48004 44.7888 6.47427 44.8772 6.4688 44.9657L5.07116 44.8792C5.07682 44.7877 5.08278 44.6963 5.08903 44.6048Z" fill="#FECE00"/>
<path d="M6.4688 50.0138C6.47427 50.1022 6.48004 50.1907 6.48608 50.2791L5.08903 50.3746C5.08278 50.2832 5.07682 50.1917 5.07116 50.1003L6.4688 50.0138Z" fill="#FECE00"/>
<path d="M6.71924 52.66C6.73046 52.7479 6.74197 52.8358 6.75376 52.9237L5.3659 53.11C5.3537 53.0191 5.34179 52.9282 5.33019 52.8373L6.71924 52.66Z" fill="#FECE00"/>
<path d="M7.14155 55.2844C7.15846 55.3713 7.17565 55.4582 7.19313 55.545L5.82037 55.8214C5.80229 55.7316 5.7845 55.6418 5.76701 55.5519L7.14155 55.2844Z" fill="#FECE00"/>
<path d="M8.12575 63.4428C8.16045 63.5274 8.19544 63.612 8.23072 63.6965L9.52289 63.1569C9.48879 63.0752 9.45498 62.9935 9.42144 62.9117L8.12575 63.4428Z" fill="#FECE00"/>
<path d="M9.25135 65.9501L10.5093 65.3348C10.5482 65.4144 10.5873 65.4938 10.6268 65.5731L9.37297 66.1967C9.33215 66.1146 9.2916 66.0324 9.25135 65.9501Z" fill="#FECE00"/>
<path d="M10.5403 68.3787L10.5492 68.3736L10.5486 68.3727L13.4592 66.6924L13.5992 66.9349L10.6887 68.6153L10.6869 68.6121L10.6782 68.6172C10.6319 68.5378 10.5859 68.4583 10.5403 68.3787Z" fill="#FECE00"/>
<path d="M11.9868 70.7176L13.1528 69.9423C13.2017 70.0158 13.2509 70.0892 13.3003 70.1625L12.1393 70.9454C12.0882 70.8696 12.0373 70.7937 11.9868 70.7176Z" fill="#FECE00"/>
<path d="M13.5825 72.9545L14.6952 72.1043C14.7489 72.1746 14.8029 72.2448 14.8572 72.3149L13.75 73.1723C13.6939 73.0998 13.6381 73.0272 13.5825 72.9545Z" fill="#FECE00"/>
<path d="M15.322 75.0833C15.3823 75.1525 15.443 75.2215 15.5039 75.2904L16.5528 74.3627C16.4939 74.2961 16.4353 74.2294 16.3769 74.1625L15.322 75.0833Z" fill="#FECE00"/>
<path d="M17.2948 77.1942L17.1958 77.0952L19.5722 74.7189L19.7702 74.9169L17.3938 77.2933L17.347 77.2464C17.3296 77.229 17.3122 77.2116 17.2948 77.1942Z" fill="#FECE00"/>
<path d="M19.1987 78.9851L20.1263 77.9361C20.1929 77.995 20.2597 78.0537 20.3265 78.112L19.4057 79.167C19.3365 79.1066 19.2675 79.046 19.1987 78.9851Z" fill="#FECE00"/>
<path d="M21.3168 80.7389L22.1742 79.6318C22.2443 79.686 22.3145 79.74 22.3848 79.7937L21.5346 80.9064C21.4619 80.8508 21.3893 80.795 21.3168 80.7389Z" fill="#FECE00"/>
<path d="M23.5437 82.3495L24.3267 81.1886C24.4 81.238 24.4734 81.2872 24.5469 81.3361L23.7715 82.5021C23.6954 82.4515 23.6195 82.4007 23.5437 82.3495Z" fill="#FECE00"/>
<path d="M70.2284 82.5021L69.4531 81.3361C69.5266 81.2872 69.6 81.2381 69.6733 81.1886L70.4563 82.3495L70.3891 82.3948L70.3534 82.4187C70.3118 82.4466 70.2701 82.4744 70.2284 82.5021Z" fill="#FECE00"/>
<path d="M72.4653 80.9064L71.6152 79.7938L71.6443 79.7714C71.6688 79.7527 71.6932 79.734 71.7176 79.7152C71.7537 79.6875 71.7897 79.6597 71.8257 79.6318L72.6831 80.7389C72.6107 80.795 72.5381 80.8509 72.4653 80.9064Z" fill="#FECE00"/>
<path d="M74.5942 79.167C74.6634 79.1066 74.7324 79.046 74.8013 78.9851L73.8736 77.9362C73.807 77.9951 73.7403 78.0537 73.6734 78.1121L74.5942 79.167Z" fill="#FECE00"/>
<path d="M76.6062 77.2933L74.2298 74.9169L74.4278 74.7189L76.8042 77.0952L76.6062 77.2933Z" fill="#FECE00"/>
<path d="M78.4961 75.2904L77.4471 74.3627C77.4964 74.307 77.5456 74.2511 77.5945 74.1951L77.623 74.1625L78.678 75.0833C78.6176 75.1525 78.557 75.2215 78.4961 75.2904Z" fill="#FECE00"/>
<path d="M80.2499 73.1723L79.1428 72.3149C79.197 72.2449 79.251 72.1747 79.3047 72.1043L80.4175 72.9545C80.3619 73.0272 80.306 73.0998 80.2499 73.1723Z" fill="#FECE00"/>
<path d="M81.8606 70.9455L80.6997 70.1625C80.7491 70.0892 80.7982 70.0158 80.8471 69.9423L82.0132 70.7176C81.9626 70.7937 81.9118 70.8697 81.8606 70.9455Z" fill="#FECE00"/>
<path d="M83.3218 68.6172L83.313 68.6121L83.3112 68.6153L80.4007 66.935L80.5407 66.6924L83.4512 68.3728L83.4508 68.3736L83.4597 68.3787C83.414 68.4584 83.368 68.5378 83.3218 68.6172Z" fill="#FECE00"/>
<path d="M84.627 66.1967L83.3732 65.5731C83.4126 65.4938 83.4518 65.4144 83.4907 65.3348L84.7486 65.9501C84.7084 66.0324 84.6678 66.1146 84.627 66.1967Z" fill="#FECE00"/>
<path d="M85.7692 63.6965L84.4771 63.1569C84.5112 63.0753 84.545 62.9935 84.5785 62.9117L85.8742 63.4428C85.8395 63.5275 85.8045 63.612 85.7692 63.6965Z" fill="#FECE00"/>
<path d="M86.7445 61.1263L85.4197 60.6729C85.4484 60.589 85.4768 60.505 85.505 60.4209L86.8328 60.8656C86.8037 60.9526 86.7742 61.0395 86.7445 61.1263Z" fill="#FECE00"/>
<path d="M88.9288 50.1003C88.9231 50.1917 88.9172 50.2832 88.9109 50.3746L87.5139 50.2791C87.5199 50.1906 87.5257 50.1022 87.5312 50.0138L88.9288 50.1003Z" fill="#FECE00"/>
<path d="M88.9288 44.8792L87.5312 44.9657C87.5257 44.8772 87.5199 44.7888 87.5139 44.7004L88.9109 44.6048C88.9172 44.6963 88.9231 44.7877 88.9288 44.8792Z" fill="#FECE00"/>
<path d="M88.6698 42.1422L87.2807 42.3195C87.2695 42.2315 87.258 42.1437 87.2462 42.0558L88.6341 41.8695C88.6463 41.9604 88.6582 42.0513 88.6698 42.1422Z" fill="#FECE00"/>
<path d="M88.2329 39.4276L86.8584 39.695C86.8415 39.6081 86.8243 39.5213 86.8068 39.4345L88.1796 39.1581C88.1977 39.2478 88.2155 39.3377 88.2329 39.4276Z" fill="#FECE00"/>
<path d="M87.62 36.748C87.6102 36.7106 87.6003 36.6732 87.5903 36.6359C87.5847 36.615 87.5791 36.5941 87.5735 36.5733L87.561 36.5266L87.5491 36.4824L87.5424 36.4842L87.5418 36.4819L84.2956 37.3517L84.368 37.6222L87.6143 36.7524L87.6136 36.7497L87.62 36.748Z" fill="#FECE00"/>
<path d="M86.8328 34.1138L85.505 34.5586C85.4897 34.5128 85.4742 34.467 85.4587 34.4213C85.4458 34.383 85.4328 34.3448 85.4197 34.3066L86.7445 33.8531C86.7742 33.9399 86.8037 34.0268 86.8328 34.1138Z" fill="#FECE00"/>
<path d="M85.8742 31.5367L84.5785 32.0677C84.545 31.9859 84.5112 31.9042 84.4771 31.8226L85.7692 31.283C85.7913 31.3358 85.8132 31.3886 85.8351 31.4415L85.8483 31.4735L85.8742 31.5367Z" fill="#FECE00"/>
<path d="M84.7486 29.0294C84.7084 28.9471 84.6678 28.8649 84.627 28.7828L83.3732 29.4063C83.4126 29.4857 83.4518 29.5651 83.4907 29.6446L84.7486 29.0294Z" fill="#FECE00"/>
<path d="M78.678 19.8961C78.6176 19.827 78.557 19.758 78.4961 19.6891L77.4471 20.6167C77.506 20.6833 77.5647 20.7501 77.623 20.8169L78.678 19.8961Z" fill="#FECE00"/>
<path d="M0.510132 47.6298V47.3497L8.35122 47.3497L8.35128 47.6298H0.510132Z" fill="#FECE00"/>
<path d="M85.6487 47.3497L85.6487 47.6298H93.4898V47.3497L85.6487 47.3497Z" fill="#FECE00"/>
<path d="M47.14 8.8419H46.8599L46.8601 1H47.1401L47.14 8.8419Z" stroke="#FECE00" stroke-width="0.5"/>
<path d="M76.8042 17.8842L76.6062 17.6862L74.2298 20.0626L74.4278 20.2606L76.8042 17.8842Z" stroke="#FECE00" stroke-width="0.5"/>
<path d="M74.8013 15.9944L73.8736 17.0433C73.807 16.9844 73.7403 16.9258 73.6734 16.8674L74.5943 15.8125C74.6634 15.8728 74.7324 15.9335 74.8013 15.9944Z" stroke="#FECE00" stroke-width="0.5"/>
<path d="M72.6832 14.2406L71.8257 15.3477C71.7557 15.2934 71.6855 15.2394 71.6152 15.1857L72.4653 14.073C72.5381 14.1286 72.6107 14.1845 72.6832 14.2406Z" stroke="#FECE00" stroke-width="0.5"/>
<path d="M70.4563 12.6299L69.6733 13.7908C69.6 13.7414 69.5266 13.6923 69.4531 13.6434L70.2284 12.4773C70.3045 12.5279 70.3805 12.5788 70.4563 12.6299Z" stroke="#FECE00" stroke-width="0.5"/>
<path d="M68.128 11.1688C68.0486 11.1225 67.9691 11.0765 67.8895 11.0309L67.8843 11.0398L67.8834 11.0393L66.203 13.9497L66.4456 14.0898L68.1259 11.1793L68.1229 11.1776L68.128 11.1688Z" stroke="#FECE00" stroke-width="0.5"/>
<path d="M65.7074 9.86362L65.0838 11.1174C65.0045 11.0779 64.925 11.0388 64.8455 10.9999L65.4608 9.74199C65.5431 9.78224 65.6253 9.82279 65.7074 9.86362Z" stroke="#FECE00" stroke-width="0.5"/>
<path d="M63.2071 8.72138L62.6675 10.0135C62.5859 9.97943 62.5041 9.94562 62.4223 9.91208L62.9534 8.61642C63.0381 8.65112 63.1227 8.6861 63.2071 8.72138Z" stroke="#FECE00" stroke-width="0.5"/>
<path d="M60.6369 7.74612L60.1834 9.07094C60.0995 9.04222 60.0155 9.01378 59.9315 8.98562L60.3762 7.65784C60.4632 7.68697 60.5501 7.7164 60.6369 7.74612Z" stroke="#FECE00" stroke-width="0.5"/>
<path d="M58.0076 6.94157L58.0058 6.94824L58.0081 6.94886L57.1383 10.195L56.8678 10.1225L57.7376 6.87638L57.7403 6.87709L57.742 6.87066C57.8306 6.894 57.9191 6.91764 58.0076 6.94157Z" stroke="#FECE00" stroke-width="0.5"/>
<path d="M55.3319 6.31109L55.0554 7.68382C54.9686 7.66634 54.8818 7.64914 54.7949 7.63224L55.0623 6.25773C55.1522 6.27522 55.2421 6.29301 55.3319 6.31109Z" stroke="#FECE00" stroke-width="0.5"/>
<path d="M52.6204 5.85663L52.434 7.24446C52.3462 7.23267 52.2583 7.22116 52.1704 7.20994L52.3476 5.82092C52.4386 5.83252 52.5295 5.84443 52.6204 5.85663Z" stroke="#FECE00" stroke-width="0.5"/>
<path d="M49.885 5.57977L49.7894 6.97679C49.701 6.97074 49.6125 6.96497 49.5241 6.95951L49.6106 5.56189C49.7021 5.56755 49.7935 5.57351 49.885 5.57977Z" stroke="#FECE00" stroke-width="0.5"/>
<path d="M44.3894 5.56189L44.4759 6.9595C44.3874 6.96498 44.299 6.97074 44.2106 6.97679L44.115 5.57977C44.2064 5.57351 44.2979 5.56755 44.3894 5.56189Z" stroke="#FECE00" stroke-width="0.5"/>
<path d="M41.6523 5.82092L41.8296 7.20994C41.7417 7.22116 41.6538 7.23267 41.5659 7.24446L41.3796 5.85662C41.4705 5.84442 41.5614 5.83252 41.6523 5.82092Z" stroke="#FECE00" stroke-width="0.5"/>
<path d="M38.9376 6.25773L39.2051 7.63223C39.1182 7.64914 39.0313 7.66634 38.9445 7.68382L38.6681 6.31109C38.7579 6.29301 38.8477 6.27522 38.9376 6.25773Z" stroke="#FECE00" stroke-width="0.5"/>
<path d="M36.258 6.87066L36.2597 6.87708L36.2624 6.87636L37.1322 10.1225L36.8617 10.195L35.9919 6.94885L35.9942 6.94823L35.9924 6.94157C36.0809 6.91764 36.1694 6.894 36.258 6.87066Z" stroke="#FECE00" stroke-width="0.5"/>
<path d="M33.6238 7.65784L34.0685 8.98562C33.9844 9.01377 33.9004 9.04222 33.8165 9.07094L33.363 7.74611C33.4499 7.7164 33.5368 7.68697 33.6238 7.65784Z" stroke="#FECE00" stroke-width="0.5"/>
<path d="M31.0465 8.61641L31.5776 9.91207C31.4958 9.94561 31.4141 9.97943 31.3324 10.0135L30.7928 8.72138C30.8773 8.6861 30.9619 8.65111 31.0465 8.61641Z" stroke="#FECE00" stroke-width="0.5"/>
<path d="M28.5392 9.74199L29.1545 10.9999C29.0749 11.0388 28.9955 11.0779 28.9162 11.1174L28.2926 9.86361C28.3747 9.82278 28.4569 9.78224 28.5392 9.74199Z" stroke="#FECE00" stroke-width="0.5"/>
<path d="M26.1105 11.0309L26.1156 11.0398L26.1165 11.0393L27.7969 13.9497L27.5543 14.0897L25.8739 11.1793L25.8771 11.1775L25.872 11.1688C25.9514 11.1225 26.0309 11.0765 26.1105 11.0309Z" stroke="#FECE00" stroke-width="0.5"/>
<path d="M23.7715 12.4773L24.5469 13.6434C24.4734 13.6923 24.4 13.7414 24.3267 13.7908L23.5437 12.6299C23.6195 12.5788 23.6955 12.5279 23.7715 12.4773Z" stroke="#FECE00" stroke-width="0.5"/>
<path d="M21.5347 14.073L22.3848 15.1857C22.3145 15.2394 22.2443 15.2934 22.1742 15.3477L21.3168 14.2406C21.3893 14.1844 21.4619 14.1286 21.5347 14.073Z" stroke="#FECE00" stroke-width="0.5"/>
<path d="M19.4057 15.8125C19.3366 15.8728 19.2675 15.9335 19.1987 15.9944L20.1264 17.0433C20.1929 16.9844 20.2597 16.9258 20.3266 16.8674L19.4057 15.8125Z" stroke="#FECE00" stroke-width="0.5"/>
<path d="M17.3938 17.6862L17.1958 17.8842L19.5722 20.2606L19.7702 20.0626L17.3938 17.6862Z" stroke="#FECE00" stroke-width="0.5"/>
<path d="M15.5039 19.6891L16.5528 20.6167C16.494 20.6833 16.4353 20.75 16.3769 20.8169L15.322 19.8961C15.3823 19.8269 15.443 19.7579 15.5039 19.6891Z" stroke="#FECE00" stroke-width="0.5"/>
<path d="M13.7501 21.8072L14.8572 22.6645C14.8029 22.7346 14.7489 22.8048 14.6952 22.8751L13.5825 22.025C13.6381 21.9522 13.6939 21.8796 13.7501 21.8072Z" stroke="#FECE00" stroke-width="0.5"/>
<path d="M12.1393 24.034L13.3003 24.817C13.2509 24.8902 13.2017 24.9636 13.1528 25.0372L11.9868 24.2618C12.0374 24.1857 12.0882 24.1098 12.1393 24.034Z" stroke="#FECE00" stroke-width="0.5"/>
<path d="M10.5492 26.6058L10.5486 26.6068L13.4591 28.2871L13.5991 28.0446L10.6886 26.3642L10.6869 26.3673L10.6782 26.3622C10.6319 26.4416 10.5859 26.5211 10.5403 26.6007L10.5492 26.6058Z" stroke="#FECE00" stroke-width="0.5"/>
<path d="M9.37298 28.7828L10.6268 29.4063C10.5873 29.4856 10.5482 29.5651 10.5093 29.6446L9.25135 29.0294C9.29161 28.9471 9.33215 28.8649 9.37298 28.7828Z" stroke="#FECE00" stroke-width="0.5"/>
<path d="M8.23072 31.283L9.52289 31.8226C9.4888 31.9042 9.45498 31.9859 9.42145 32.0677L8.12576 31.5366C8.16046 31.452 8.19544 31.3674 8.23072 31.283Z" stroke="#FECE00" stroke-width="0.5"/>
<path d="M7.25543 33.8531L8.58029 34.3066C8.55157 34.3905 8.52312 34.4745 8.49496 34.5586L7.16715 34.1138C7.19629 34.0268 7.22571 33.9399 7.25543 33.8531Z" stroke="#FECE00" stroke-width="0.5"/>
<path d="M6.45087 36.4824L6.45753 36.4842L6.45815 36.4819L9.7044 37.3517L9.63191 37.6222L6.38566 36.7524L6.38638 36.7497L6.37995 36.748C6.4033 36.6594 6.42694 36.5709 6.45087 36.4824Z" stroke="#FECE00" stroke-width="0.5"/>
<path d="M5.82037 39.158L7.19313 39.4345C7.17565 39.5213 7.15846 39.6081 7.14155 39.695L5.76701 39.4276C5.7845 39.3377 5.80229 39.2478 5.82037 39.158Z" stroke="#FECE00" stroke-width="0.5"/>
<path d="M5.3659 41.8695L6.75376 42.0558C6.74197 42.1437 6.73046 42.2315 6.71924 42.3195L5.33019 42.1422C5.34179 42.0513 5.3537 41.9604 5.3659 41.8695Z" stroke="#FECE00" stroke-width="0.5"/>
<path d="M5.08903 44.6048L6.48608 44.7004C6.48004 44.7888 6.47427 44.8772 6.4688 44.9657L5.07116 44.8792C5.07682 44.7877 5.08278 44.6963 5.08903 44.6048Z" stroke="#FECE00" stroke-width="0.5"/>
<path d="M6.4688 50.0138C6.47427 50.1022 6.48004 50.1907 6.48608 50.2791L5.08903 50.3746C5.08278 50.2832 5.07682 50.1917 5.07116 50.1003L6.4688 50.0138Z" stroke="#FECE00" stroke-width="0.5"/>
<path d="M6.71924 52.66C6.73046 52.7479 6.74197 52.8358 6.75376 52.9237L5.3659 53.11C5.3537 53.0191 5.34179 52.9282 5.33019 52.8373L6.71924 52.66Z" stroke="#FECE00" stroke-width="0.5"/>
<path d="M7.14155 55.2844C7.15846 55.3713 7.17565 55.4582 7.19313 55.545L5.82037 55.8214C5.80229 55.7316 5.7845 55.6418 5.76701 55.5519L7.14155 55.2844Z" stroke="#FECE00" stroke-width="0.5"/>
<path d="M8.12575 63.4428C8.16045 63.5274 8.19544 63.612 8.23072 63.6965L9.52289 63.1569C9.48879 63.0752 9.45498 62.9935 9.42144 62.9117L8.12575 63.4428Z" stroke="#FECE00" stroke-width="0.5"/>
<path d="M9.25135 65.9501L10.5093 65.3348C10.5482 65.4144 10.5873 65.4938 10.6268 65.5731L9.37297 66.1967C9.33215 66.1146 9.2916 66.0324 9.25135 65.9501Z" stroke="#FECE00" stroke-width="0.5"/>
<path d="M10.5403 68.3787L10.5492 68.3736L10.5486 68.3727L13.4592 66.6924L13.5992 66.9349L10.6887 68.6153L10.6869 68.6121L10.6782 68.6172C10.6319 68.5378 10.5859 68.4583 10.5403 68.3787Z" stroke="#FECE00" stroke-width="0.5"/>
<path d="M11.9868 70.7176L13.1528 69.9423C13.2017 70.0158 13.2509 70.0892 13.3003 70.1625L12.1393 70.9454C12.0882 70.8696 12.0373 70.7937 11.9868 70.7176Z" stroke="#FECE00" stroke-width="0.5"/>
<path d="M13.5825 72.9545L14.6952 72.1043C14.7489 72.1746 14.8029 72.2448 14.8572 72.3149L13.75 73.1723C13.6939 73.0998 13.6381 73.0272 13.5825 72.9545Z" stroke="#FECE00" stroke-width="0.5"/>
<path d="M15.322 75.0833C15.3823 75.1525 15.443 75.2215 15.5039 75.2904L16.5528 74.3627C16.4939 74.2961 16.4353 74.2294 16.3769 74.1625L15.322 75.0833Z" stroke="#FECE00" stroke-width="0.5"/>
<path d="M17.2948 77.1942L17.1958 77.0952L19.5722 74.7189L19.7702 74.9169L17.3938 77.2933L17.347 77.2464C17.3296 77.229 17.3122 77.2116 17.2948 77.1942Z" stroke="#FECE00" stroke-width="0.5"/>
<path d="M19.1987 78.9851L20.1263 77.9361C20.1929 77.995 20.2597 78.0537 20.3265 78.112L19.4057 79.167C19.3365 79.1066 19.2675 79.046 19.1987 78.9851Z" stroke="#FECE00" stroke-width="0.5"/>
<path d="M21.3168 80.7389L22.1742 79.6318C22.2443 79.686 22.3145 79.74 22.3848 79.7937L21.5346 80.9064C21.4619 80.8508 21.3893 80.795 21.3168 80.7389Z" stroke="#FECE00" stroke-width="0.5"/>
<path d="M23.5437 82.3495L24.3267 81.1886C24.4 81.238 24.4734 81.2872 24.5469 81.3361L23.7715 82.5021C23.6954 82.4515 23.6195 82.4007 23.5437 82.3495Z" stroke="#FECE00" stroke-width="0.5"/>
<path d="M70.2284 82.5021L69.4531 81.3361C69.5266 81.2872 69.6 81.2381 69.6733 81.1886L70.4563 82.3495L70.3891 82.3948L70.3534 82.4187C70.3118 82.4466 70.2701 82.4744 70.2284 82.5021Z" stroke="#FECE00" stroke-width="0.5"/>
<path d="M72.4653 80.9064L71.6152 79.7938L71.6443 79.7714C71.6688 79.7527 71.6932 79.734 71.7176 79.7152C71.7537 79.6875 71.7897 79.6597 71.8257 79.6318L72.6831 80.7389C72.6107 80.795 72.5381 80.8509 72.4653 80.9064Z" stroke="#FECE00" stroke-width="0.5"/>
<path d="M74.5942 79.167C74.6634 79.1066 74.7324 79.046 74.8013 78.9851L73.8736 77.9362C73.807 77.9951 73.7403 78.0537 73.6734 78.1121L74.5942 79.167Z" stroke="#FECE00" stroke-width="0.5"/>
<path d="M76.6062 77.2933L74.2298 74.9169L74.4278 74.7189L76.8042 77.0952L76.6062 77.2933Z" stroke="#FECE00" stroke-width="0.5"/>
<path d="M78.4961 75.2904L77.4471 74.3627C77.4964 74.307 77.5456 74.2511 77.5945 74.1951L77.623 74.1625L78.678 75.0833C78.6176 75.1525 78.557 75.2215 78.4961 75.2904Z" stroke="#FECE00" stroke-width="0.5"/>
<path d="M80.2499 73.1723L79.1428 72.3149C79.197 72.2449 79.251 72.1747 79.3047 72.1043L80.4175 72.9545C80.3619 73.0272 80.306 73.0998 80.2499 73.1723Z" stroke="#FECE00" stroke-width="0.5"/>
<path d="M81.8606 70.9455L80.6997 70.1625C80.7491 70.0892 80.7982 70.0158 80.8471 69.9423L82.0132 70.7176C81.9626 70.7937 81.9118 70.8697 81.8606 70.9455Z" stroke="#FECE00" stroke-width="0.5"/>
<path d="M83.3218 68.6172L83.313 68.6121L83.3112 68.6153L80.4007 66.935L80.5407 66.6924L83.4512 68.3728L83.4508 68.3736L83.4597 68.3787C83.414 68.4584 83.368 68.5378 83.3218 68.6172Z" stroke="#FECE00" stroke-width="0.5"/>
<path d="M84.627 66.1967L83.3732 65.5731C83.4126 65.4938 83.4518 65.4144 83.4907 65.3348L84.7486 65.9501C84.7084 66.0324 84.6678 66.1146 84.627 66.1967Z" stroke="#FECE00" stroke-width="0.5"/>
<path d="M85.7692 63.6965L84.4771 63.1569C84.5112 63.0753 84.545 62.9935 84.5785 62.9117L85.8742 63.4428C85.8395 63.5275 85.8045 63.612 85.7692 63.6965Z" stroke="#FECE00" stroke-width="0.5"/>
<path d="M86.7445 61.1263L85.4197 60.6729C85.4484 60.589 85.4768 60.505 85.505 60.4209L86.8328 60.8656C86.8037 60.9526 86.7742 61.0395 86.7445 61.1263Z" stroke="#FECE00" stroke-width="0.5"/>
<path d="M88.9288 50.1003C88.9231 50.1917 88.9172 50.2832 88.9109 50.3746L87.5139 50.2791C87.5199 50.1906 87.5257 50.1022 87.5312 50.0138L88.9288 50.1003Z" stroke="#FECE00" stroke-width="0.5"/>
<path d="M88.9288 44.8792L87.5312 44.9657C87.5257 44.8772 87.5199 44.7888 87.5139 44.7004L88.9109 44.6048C88.9172 44.6963 88.9231 44.7877 88.9288 44.8792Z" stroke="#FECE00" stroke-width="0.5"/>
<path d="M88.6698 42.1422L87.2807 42.3195C87.2695 42.2315 87.258 42.1437 87.2462 42.0558L88.6341 41.8695C88.6463 41.9604 88.6582 42.0513 88.6698 42.1422Z" stroke="#FECE00" stroke-width="0.5"/>
<path d="M88.2329 39.4276L86.8584 39.695C86.8415 39.6081 86.8243 39.5213 86.8068 39.4345L88.1796 39.1581C88.1977 39.2478 88.2155 39.3377 88.2329 39.4276Z" stroke="#FECE00" stroke-width="0.5"/>
<path d="M87.62 36.748C87.6102 36.7106 87.6003 36.6732 87.5903 36.6359C87.5847 36.615 87.5791 36.5941 87.5735 36.5733L87.561 36.5266L87.5491 36.4824L87.5424 36.4842L87.5418 36.4819L84.2956 37.3517L84.368 37.6222L87.6143 36.7524L87.6136 36.7497L87.62 36.748Z" stroke="#FECE00" stroke-width="0.5"/>
<path d="M86.8328 34.1138L85.505 34.5586C85.4897 34.5128 85.4742 34.467 85.4587 34.4213C85.4458 34.383 85.4328 34.3448 85.4197 34.3066L86.7445 33.8531C86.7742 33.9399 86.8037 34.0268 86.8328 34.1138Z" stroke="#FECE00" stroke-width="0.5"/>
<path d="M85.8742 31.5367L84.5785 32.0677C84.545 31.9859 84.5112 31.9042 84.4771 31.8226L85.7692 31.283C85.7913 31.3358 85.8132 31.3886 85.8351 31.4415L85.8483 31.4735L85.8742 31.5367Z" stroke="#FECE00" stroke-width="0.5"/>
<path d="M84.7486 29.0294C84.7084 28.9471 84.6678 28.8649 84.627 28.7828L83.3732 29.4063C83.4126 29.4857 83.4518 29.5651 83.4907 29.6446L84.7486 29.0294Z" stroke="#FECE00" stroke-width="0.5"/>
<path d="M78.678 19.8961C78.6176 19.827 78.557 19.758 78.4961 19.6891L77.4471 20.6167C77.506 20.6833 77.5647 20.7501 77.623 20.8169L78.678 19.8961Z" stroke="#FECE00" stroke-width="0.5"/>
<path d="M0.510132 47.6298V47.3497L8.35122 47.3497L8.35128 47.6298H0.510132Z" stroke="#FECE00" stroke-width="0.5"/>
<path d="M85.6487 47.3497L85.6487 47.6298H93.4898V47.3497L85.6487 47.3497Z" stroke="#FECE00" stroke-width="0.5"/>
<path fill-rule="evenodd" clip-rule="evenodd" d="M7.66267 24.118L35.0617 51.517L19.593 66.9856L8.54562 55.9383L6.27332 58.2106L19.593 71.5303L21.6236 69.4997L30.3058 78.1819L27.5806 80.9071L43.6395 96.9661L46.3648 94.2408L48.9831 96.8592L52.51 93.3324L53.4718 94.2942L56.9986 90.7674L58.1742 91.943L61.5942 88.5231L62.9835 89.9124L68.9964 83.8996L62.6375 77.5407L71.4266 68.7516L73.9915 71.3166L89.3418 55.9663L87.0695 53.694L80.0833 60.6802L77.811 62.9525L73.9915 66.7719L57.8816 50.6621L82.395 26.1487L80.1227 23.8764L53.337 50.6621L55.2608 52.5858L52.9132 54.9334H44.9165L42.4243 57.3275L38.11 53.0132L39.6063 51.517L9.93497 21.8457L7.66267 24.118ZM44.2816 91.8929L43.1853 90.6185L42.0891 92.058L43.1853 93.3324L44.2816 91.8929ZM40.913 88.3462L39.6585 87.0917L38.4126 88.5225L39.6671 89.777L40.913 88.3462ZM37.3862 84.8194L36.2386 83.6717L35.0909 85.0637L36.2386 86.2113L37.3862 84.8194ZM33.9662 81.3994L32.8186 80.2518L31.6623 81.6351L32.81 82.7828L33.9662 81.3994ZM40.1063 59.5541L36.1032 55.2641L24.1614 67.206L48.9831 92.3146L50.2377 91.0601L45.3889 86.2113L47.6612 83.939L53.4718 89.7496L54.7263 88.4951L50.0913 83.8601L52.3636 81.5878L58.1742 87.3984L59.3219 86.2508L54.6869 81.6158L56.9592 79.3435L62.9835 85.3678L64.4518 83.8996L46.5531 66.0009C46.3271 66.2428 46.0374 66.5433 45.6929 66.88C44.8224 67.7312 43.5796 68.8374 42.1158 69.818C39.3148 71.6946 35.0268 73.534 31.0991 70.9156L29.4345 69.8059L40.1063 59.5541ZM45.0703 63.6591L46.9131 61.8163L60.3652 75.2684L69.1543 66.4793L57.5331 54.8581L51.295 61.0962L49.0227 58.8239L49.6996 58.1469H46.2099L34.94 68.9731C36.6315 69.1315 38.4881 68.3804 40.3272 67.1483C41.0191 66.6847 45.0703 63.6591 45.0703 63.6591Z" fill="white"/>
<path fill-rule="evenodd" clip-rule="evenodd" d="M51.7121 31.104C52.8193 32.0308 54.1645 32.5592 56.1968 32.2449C59.2867 31.7671 60.6242 29.2277 60.1995 26.8323C59.8736 24.9944 58.6799 23.4376 57.1638 22.8792C55.7846 22.3712 53.5286 22.4845 50.5725 25.273L47.8162 22.351C51.5047 18.8716 55.3141 17.9172 58.5521 19.1098C61.6533 20.252 63.6287 23.164 64.1547 26.1311C64.9263 30.4827 62.3819 35.3531 56.8107 36.2146C53.5938 36.7121 51.0942 35.8253 49.1338 34.1842C47.2879 32.639 45.9888 30.4766 44.9235 28.5864C44.7389 28.2589 44.5614 27.9402 44.3892 27.6307C43.4969 26.028 42.743 24.6737 41.8468 23.6281C40.8649 22.4823 39.9387 21.9807 38.7277 22.0358C35.9661 22.1613 34.6383 23.2697 34.0288 24.4157C33.3621 25.6694 33.3346 27.3809 33.9799 28.9701C34.6224 30.5522 35.8089 31.7179 37.2047 32.1035C38.5282 32.4691 40.5111 32.2588 43.062 30.1245L45.6397 33.2053C42.3726 35.9388 39.0619 36.7838 36.1351 35.9754C33.2807 35.1869 31.2602 32.9491 30.2582 30.4813C29.259 28.0206 29.1495 25.0358 30.4822 22.5297C31.8722 19.916 34.6253 18.2012 38.5453 18.023C41.3875 17.8938 43.4091 19.2781 44.8969 21.0141C46.0824 22.3974 47.0705 24.1795 47.9528 25.7708C48.1127 26.0593 48.2693 26.3416 48.4228 26.6141C49.4987 28.523 50.4903 30.0812 51.7121 31.104Z" fill="#FECE00"/>
</svg>
