<svg width="98" height="98" viewBox="0 0 98 98" fill="none" xmlns="http://www.w3.org/2000/svg">
<path d="M49.1446 9.09663H48.8554L48.8555 1H49.1447L49.1446 9.09663Z" fill="#FECE00"/>
<path d="M68.3151 10.1515L67.6713 11.446C67.5894 11.4053 67.5073 11.3649 67.4252 11.3247L68.0605 10.026C68.1455 10.0675 68.2303 10.1094 68.3151 10.1515Z" fill="#FECE00"/>
<path d="M65.7336 8.9722L65.1765 10.3063C65.0922 10.2711 65.0078 10.2362 64.9233 10.2016L65.4717 8.86383C65.5591 8.89965 65.6464 8.93578 65.7336 8.9722Z" fill="#FECE00"/>
<path d="M63.0799 7.96525L62.6117 9.33312C62.5251 9.30346 62.4383 9.27409 62.3515 9.24502L62.8107 7.87411C62.9006 7.90419 62.9903 7.93457 63.0799 7.96525Z" fill="#FECE00"/>
<path d="M60.3652 7.13457L60.3633 7.14146L60.3657 7.1421L59.4676 10.4937L59.1883 10.4189L60.0864 7.06726L60.0892 7.068L60.0909 7.06136C60.1824 7.08546 60.2738 7.10987 60.3652 7.13457Z" fill="#FECE00"/>
<path d="M57.6025 6.48362L57.3171 7.90093C57.2275 7.88289 57.1378 7.86513 57.0481 7.84767L57.3242 6.42852C57.4171 6.44658 57.5098 6.46495 57.6025 6.48362Z" fill="#FECE00"/>
<path d="M54.803 6.01439L54.6106 7.4473C54.5199 7.43513 54.4291 7.42324 54.3383 7.41166L54.5214 5.97752C54.6153 5.9895 54.7091 6.00179 54.803 6.01439Z" fill="#FECE00"/>
<path d="M51.9787 5.72854L51.88 7.17093C51.7887 7.16469 51.6974 7.15874 51.6061 7.15309L51.6954 5.71008C51.7899 5.71592 51.8843 5.72208 51.9787 5.72854Z" fill="#FECE00"/>
<path d="M46.3046 5.71008L46.3939 7.15309C46.3026 7.15874 46.2113 7.16469 46.12 7.17093L46.0213 5.72854C46.1157 5.72208 46.2101 5.71592 46.3046 5.71008Z" fill="#FECE00"/>
<path d="M43.4786 5.97752L43.6617 7.41166C43.5709 7.42324 43.4801 7.43512 43.3894 7.4473L43.1971 6.01438C43.2909 6.00179 43.3848 5.9895 43.4786 5.97752Z" fill="#FECE00"/>
<path d="M40.6758 6.42852L40.9519 7.84767C40.8622 7.86513 40.7725 7.88288 40.6829 7.90093L40.3975 6.48361C40.4902 6.46494 40.583 6.44658 40.6758 6.42852Z" fill="#FECE00"/>
<path d="M37.9091 7.06136L37.9109 7.06799L37.9136 7.06725L38.8117 10.4189L38.5324 10.4937L37.6343 7.14209L37.6367 7.14144L37.6348 7.13457C37.7262 7.10986 37.8176 7.08546 37.9091 7.06136Z" fill="#FECE00"/>
<path d="M35.1893 7.87411L35.6485 9.24502C35.5617 9.27409 35.475 9.30346 35.3883 9.33311L34.9201 7.96525C35.0097 7.93457 35.0995 7.90419 35.1893 7.87411Z" fill="#FECE00"/>
<path d="M32.5283 8.86382L33.0767 10.2016C32.9922 10.2362 32.9078 10.2711 32.8235 10.3063L32.2664 8.97219C32.3536 8.93577 32.4409 8.89964 32.5283 8.86382Z" fill="#FECE00"/>
<path d="M29.9395 10.026L30.5748 11.3247C30.4927 11.3649 30.4107 11.4053 30.3288 11.446L29.6849 10.1515C29.7697 10.1094 29.8546 10.0675 29.9395 10.026Z" fill="#FECE00"/>
<path d="M27.432 11.3567L27.4372 11.3659L27.4381 11.3654L29.1731 14.3704L28.9227 14.5149L27.1877 11.51L27.1909 11.5081L27.1857 11.4991C27.2677 11.4513 27.3498 11.4039 27.432 11.3567Z" fill="#FECE00"/>
<path d="M25.017 12.8502L25.8176 14.0541C25.7417 14.1045 25.6659 14.1553 25.5902 14.2063L24.7818 13.0077C24.8601 12.9549 24.9385 12.9024 25.017 12.8502Z" fill="#FECE00"/>
<path d="M22.7075 14.4977L23.5852 15.6465C23.5126 15.702 23.4402 15.7577 23.3678 15.8137L22.4826 14.6707C22.5574 14.6127 22.6324 14.5551 22.7075 14.4977Z" fill="#FECE00"/>
<path d="M20.5094 16.2936C20.438 16.3559 20.3667 16.4185 20.2956 16.4814L21.2534 17.5644C21.3222 17.5036 21.3911 17.4431 21.4601 17.3828L20.5094 16.2936Z" fill="#FECE00"/>
<path d="M18.4321 18.2282L18.2276 18.4327L20.6812 20.8862L20.8857 20.6818L18.4321 18.2282Z" fill="#FECE00"/>
<path d="M16.4808 20.2962L17.5638 21.2539C17.503 21.3227 17.4425 21.3916 17.3822 21.4606L16.293 20.5099C16.3553 20.4385 16.4179 20.3673 16.4808 20.2962Z" fill="#FECE00"/>
<path d="M14.67 22.483L15.8131 23.3683C15.7571 23.4406 15.7013 23.5131 15.6459 23.5857L14.497 22.708C14.5544 22.6328 14.6121 22.5579 14.67 22.483Z" fill="#FECE00"/>
<path d="M13.007 24.7822L14.2056 25.5906C14.1546 25.6663 14.1039 25.7421 14.0534 25.818L12.8494 25.0174C12.9017 24.9389 12.9542 24.8605 13.007 24.7822Z" fill="#FECE00"/>
<path d="M11.3651 27.4376L11.3646 27.4386L14.3696 29.1735L14.5142 28.9231L11.5091 27.1882L11.5073 27.1913L11.4983 27.1861C11.4506 27.268 11.4031 27.3501 11.3559 27.4323L11.3651 27.4376Z" fill="#FECE00"/>
<path d="M10.1507 29.6852L11.4453 30.3291C11.4046 30.411 11.3641 30.493 11.3239 30.5751L10.0252 29.9398C10.0667 29.8549 10.1086 29.77 10.1507 29.6852Z" fill="#FECE00"/>
<path d="M8.97138 32.2666L10.3055 32.8238C10.2703 32.9081 10.2354 32.9924 10.2008 33.0769L8.86301 32.5286C8.89883 32.4412 8.93496 32.3539 8.97138 32.2666Z" fill="#FECE00"/>
<path d="M7.96441 34.9203L9.33231 35.3885C9.30265 35.4751 9.27328 35.5619 9.24421 35.6487L7.87327 35.1895C7.90335 35.0997 7.93373 35.0099 7.96441 34.9203Z" fill="#FECE00"/>
<path d="M7.13371 37.635L7.14059 37.6368L7.14123 37.6344L10.4929 38.5325L10.4181 38.8118L7.06639 37.9137L7.06713 37.911L7.0605 37.9092C7.0846 37.8177 7.109 37.7263 7.13371 37.635Z" fill="#FECE00"/>
<path d="M6.48274 40.3975L7.90009 40.683C7.88204 40.7726 7.86429 40.8623 7.84683 40.952L6.42764 40.6758C6.4457 40.583 6.46407 40.4903 6.48274 40.3975Z" fill="#FECE00"/>
<path d="M6.0135 43.1971L7.44645 43.3894C7.43427 43.4801 7.42239 43.5709 7.4108 43.6617L5.97663 43.4786C5.98861 43.3848 6.0009 43.2909 6.0135 43.1971Z" fill="#FECE00"/>
<path d="M5.72764 46.0212L7.17007 46.1199C7.16383 46.2112 7.15788 46.3025 7.15223 46.3938L5.70918 46.3045C5.71503 46.2101 5.72118 46.1157 5.72764 46.0212Z" fill="#FECE00"/>
<path d="M7.15223 51.6059C7.15788 51.6972 7.16383 51.7885 7.17007 51.8798L5.72764 51.9785C5.72118 51.8841 5.71503 51.7897 5.70919 51.6952L7.15223 51.6059Z" fill="#FECE00"/>
<path d="M7.4108 54.3381C7.42239 54.4289 7.43427 54.5196 7.44645 54.6103L6.0135 54.8027C6.0009 54.7089 5.98861 54.615 5.97663 54.5211L7.4108 54.3381Z" fill="#FECE00"/>
<path d="M7.84683 57.0478C7.86429 57.1375 7.88204 57.2272 7.90009 57.3168L6.48274 57.6022C6.46407 57.5095 6.4457 57.4167 6.42764 57.3239L7.84683 57.0478Z" fill="#FECE00"/>
<path d="M29.6849 87.8482L30.3287 86.5537C30.4107 86.5944 30.4927 86.6349 30.5748 86.6751L29.9395 87.9738C29.8545 87.9322 29.7697 87.8904 29.6849 87.8482Z" fill="#FECE00"/>
<path d="M32.2664 89.0275L32.8235 87.6934C32.9078 87.7286 32.9922 87.7635 33.0767 87.7982L32.5283 89.1359C32.4409 89.1001 32.3536 89.064 32.2664 89.0275Z" fill="#FECE00"/>
<path d="M34.9201 90.0345L35.3883 88.6666C35.4749 88.6963 35.5617 88.7256 35.6485 88.7547L35.1893 90.1256C35.0995 90.0956 35.0097 90.0652 34.9201 90.0345Z" fill="#FECE00"/>
<path d="M37.9108 90.9318L37.9136 90.9325L38.8117 87.5809L38.5324 87.5061L37.6343 90.8577L37.6367 90.8583L37.6348 90.8652C37.7262 90.8899 37.8176 90.9143 37.9091 90.9384L37.9108 90.9318Z" fill="#FECE00"/>
<path d="M40.3975 91.5161L40.6829 90.0988C40.7725 90.1169 40.8622 90.1346 40.9519 90.1521L40.6758 91.5712C40.583 91.5532 40.4902 91.5348 40.3975 91.5161Z" fill="#FECE00"/>
<path d="M43.1971 91.9854L43.3894 90.5525C43.4801 90.5646 43.5709 90.5765 43.6617 90.5881L43.4786 92.0222C43.3848 92.0102 43.2909 91.998 43.1971 91.9854Z" fill="#FECE00"/>
<path d="M46.0213 92.2712L46.12 90.8288C46.2113 90.8351 46.3026 90.841 46.3939 90.8467L46.3046 92.2897C46.2102 92.2838 46.1157 92.2777 46.0213 92.2712Z" fill="#FECE00"/>
<path d="M51.9787 92.2712C51.8843 92.2777 51.7899 92.2838 51.6954 92.2897L51.6061 90.8467C51.6974 90.841 51.7887 90.8351 51.88 90.8288L51.9787 92.2712Z" fill="#FECE00"/>
<path d="M54.5214 92.0222C54.5873 92.0138 54.6531 92.0052 54.719 91.9965C54.747 91.9928 54.775 91.9891 54.803 91.9854L54.6106 90.5525C54.5199 90.5646 54.4291 90.5765 54.3383 90.5881L54.5214 92.0222Z" fill="#FECE00"/>
<path d="M57.3242 91.5712L57.0481 90.1521C57.1378 90.1346 57.2275 90.1169 57.3171 90.0988L57.6025 91.5161C57.5759 91.5215 57.5493 91.5268 57.5226 91.5322L57.4783 91.541C57.4539 91.5458 57.4295 91.5506 57.4051 91.5554L57.3242 91.5712Z" fill="#FECE00"/>
<path d="M60.3633 90.8583L60.3657 90.8577L59.4676 87.5061L59.1883 87.5809L60.0864 90.9325L60.0892 90.9318L60.0909 90.9384C60.1824 90.9143 60.2738 90.8899 60.3652 90.8652L60.3633 90.8583Z" fill="#FECE00"/>
<path d="M62.8107 90.1256L62.3515 88.7547C62.4383 88.7257 62.5251 88.6963 62.6117 88.6666L63.0799 90.0345C62.9903 90.0652 62.9005 90.0956 62.8107 90.1256Z" fill="#FECE00"/>
<path d="M65.4717 89.1359L64.9233 87.7982C65.0078 87.7635 65.0922 87.7286 65.1765 87.6934L65.7336 89.0276C65.684 89.0483 65.6344 89.0689 65.5848 89.0894C65.5604 89.0994 65.5361 89.1095 65.5117 89.1195L65.4717 89.1359Z" fill="#FECE00"/>
<path d="M68.0605 87.9738C68.1455 87.9322 68.2303 87.8904 68.3151 87.8482L67.6713 86.5537L67.6328 86.5728C67.6098 86.5842 67.5869 86.5956 67.564 86.6069C67.5177 86.6297 67.4715 86.6524 67.4252 86.6751L68.0605 87.9738Z" fill="#FECE00"/>
<path d="M70.568 86.6431C70.6503 86.5959 70.7324 86.5484 70.8143 86.5007L70.8091 86.4917L70.8123 86.4898L69.0773 83.4848L68.8269 83.6294L70.5619 86.6344L70.5628 86.6338L70.568 86.6431Z" fill="#FECE00"/>
<path d="M72.983 85.1496L72.1825 83.9457C72.2584 83.8952 72.3341 83.8445 72.4098 83.7934L73.2182 84.9921L73.1489 85.0387L73.112 85.0635C73.0691 85.0922 73.0261 85.121 72.983 85.1496Z" fill="#FECE00"/>
<path d="M75.2925 83.5021L74.4148 82.3532L74.4449 82.3302C74.4701 82.3109 74.4954 82.2915 74.5206 82.2721C74.5578 82.2435 74.595 82.2148 74.6322 82.186L75.5174 83.3291C75.4426 83.387 75.3677 83.4447 75.2925 83.5021Z" fill="#FECE00"/>
<path d="M77.4906 81.7061C77.562 81.6438 77.6333 81.5812 77.7044 81.5183L76.7466 80.4353C76.6778 80.4961 76.6089 80.5567 76.5399 80.6169L77.4906 81.7061Z" fill="#FECE00"/>
<path d="M79.5679 79.7715L77.1143 77.318L77.3188 77.1135L79.7724 79.5671L79.5679 79.7715Z" fill="#FECE00"/>
<path d="M81.5192 77.7036L80.4362 76.7458C80.4871 76.6882 80.5378 76.6305 80.5884 76.5728L80.6178 76.5391L81.707 77.4898C81.6447 77.5612 81.5821 77.6325 81.5192 77.7036Z" fill="#FECE00"/>
<path d="M83.33 75.5167L82.1869 74.6315C82.2429 74.5591 82.2987 74.4867 82.3542 74.414L83.503 75.2918C83.4456 75.3669 83.388 75.4419 83.33 75.5167Z" fill="#FECE00"/>
<path d="M84.993 73.2175L83.7944 72.4091C83.8454 72.3335 83.8962 72.2577 83.9466 72.1818L85.1506 72.9823C85.0983 73.0609 85.0458 73.1393 84.993 73.2175Z" fill="#FECE00"/>
<path d="M86.5017 70.8137L86.4926 70.8084L86.4908 70.8117L83.4857 69.0768L83.6303 68.8263L86.6353 70.5613L86.6348 70.5621L86.6441 70.5674C86.5969 70.6496 86.5494 70.7317 86.5017 70.8137Z" fill="#FECE00"/>
<path d="M87.8493 68.3145L86.5547 67.6707C86.5955 67.5888 86.6359 67.5068 86.6761 67.4247L87.9748 68.0599C87.9333 68.1449 87.8914 68.2297 87.8493 68.3145Z" fill="#FECE00"/>
<path d="M92.0073 54.6455C92.0005 54.6979 91.9935 54.7503 91.9865 54.8027L90.5536 54.6103C90.5657 54.5196 90.5776 54.4289 90.5892 54.3381L92.0234 54.5211C92.0181 54.5626 92.0127 54.6041 92.0073 54.6455Z" fill="#FECE00"/>
<path d="M92.2908 51.6952C92.285 51.7897 92.2788 51.8841 92.2724 51.9785L90.8299 51.8798C90.8362 51.7885 90.8421 51.6972 90.8478 51.6059L92.2908 51.6952Z" fill="#FECE00"/>
<path d="M49.1447 88.9037V97H48.8555L48.8554 88.9031H49.1446L49.1447 88.9037Z" fill="#FECE00"/>
<path d="M1 49.1445V48.8553L9.0958 48.8553L9.09586 49.1445H1Z" fill="#FECE00"/>
<path d="M88.9042 48.8553L88.9042 49.1445H97V48.8553L88.9042 48.8553Z" fill="#FECE00"/>
<path d="M49.1446 9.09663H48.8554L48.8555 1H49.1447L49.1446 9.09663Z" stroke="#FECE00" stroke-width="0.5"/>
<path d="M68.3151 10.1515L67.6713 11.446C67.5894 11.4053 67.5073 11.3649 67.4252 11.3247L68.0605 10.026C68.1455 10.0675 68.2303 10.1094 68.3151 10.1515Z" stroke="#FECE00" stroke-width="0.5"/>
<path d="M65.7336 8.9722L65.1765 10.3063C65.0922 10.2711 65.0078 10.2362 64.9233 10.2016L65.4717 8.86383C65.5591 8.89965 65.6464 8.93578 65.7336 8.9722Z" stroke="#FECE00" stroke-width="0.5"/>
<path d="M63.0799 7.96525L62.6117 9.33312C62.5251 9.30346 62.4383 9.27409 62.3515 9.24502L62.8107 7.87411C62.9006 7.90419 62.9903 7.93457 63.0799 7.96525Z" stroke="#FECE00" stroke-width="0.5"/>
<path d="M60.3652 7.13457L60.3633 7.14146L60.3657 7.1421L59.4676 10.4937L59.1883 10.4189L60.0864 7.06726L60.0892 7.068L60.0909 7.06136C60.1824 7.08546 60.2738 7.10987 60.3652 7.13457Z" stroke="#FECE00" stroke-width="0.5"/>
<path d="M57.6025 6.48362L57.3171 7.90093C57.2275 7.88289 57.1378 7.86513 57.0481 7.84767L57.3242 6.42852C57.4171 6.44658 57.5098 6.46495 57.6025 6.48362Z" stroke="#FECE00" stroke-width="0.5"/>
<path d="M54.803 6.01439L54.6106 7.4473C54.5199 7.43513 54.4291 7.42324 54.3383 7.41166L54.5214 5.97752C54.6153 5.9895 54.7091 6.00179 54.803 6.01439Z" stroke="#FECE00" stroke-width="0.5"/>
<path d="M51.9787 5.72854L51.88 7.17093C51.7887 7.16469 51.6974 7.15874 51.6061 7.15309L51.6954 5.71008C51.7899 5.71592 51.8843 5.72208 51.9787 5.72854Z" stroke="#FECE00" stroke-width="0.5"/>
<path d="M46.3046 5.71008L46.3939 7.15309C46.3026 7.15874 46.2113 7.16469 46.12 7.17093L46.0213 5.72854C46.1157 5.72208 46.2101 5.71592 46.3046 5.71008Z" stroke="#FECE00" stroke-width="0.5"/>
<path d="M43.4786 5.97752L43.6617 7.41166C43.5709 7.42324 43.4801 7.43512 43.3894 7.4473L43.1971 6.01438C43.2909 6.00179 43.3848 5.9895 43.4786 5.97752Z" stroke="#FECE00" stroke-width="0.5"/>
<path d="M40.6758 6.42852L40.9519 7.84767C40.8622 7.86513 40.7725 7.88288 40.6829 7.90093L40.3975 6.48361C40.4902 6.46494 40.583 6.44658 40.6758 6.42852Z" stroke="#FECE00" stroke-width="0.5"/>
<path d="M37.9091 7.06136L37.9109 7.06799L37.9136 7.06725L38.8117 10.4189L38.5324 10.4937L37.6343 7.14209L37.6367 7.14144L37.6348 7.13457C37.7262 7.10986 37.8176 7.08546 37.9091 7.06136Z" stroke="#FECE00" stroke-width="0.5"/>
<path d="M35.1893 7.87411L35.6485 9.24502C35.5617 9.27409 35.475 9.30346 35.3883 9.33311L34.9201 7.96525C35.0097 7.93457 35.0995 7.90419 35.1893 7.87411Z" stroke="#FECE00" stroke-width="0.5"/>
<path d="M32.5283 8.86382L33.0767 10.2016C32.9922 10.2362 32.9078 10.2711 32.8235 10.3063L32.2664 8.97219C32.3536 8.93577 32.4409 8.89964 32.5283 8.86382Z" stroke="#FECE00" stroke-width="0.5"/>
<path d="M29.9395 10.026L30.5748 11.3247C30.4927 11.3649 30.4107 11.4053 30.3288 11.446L29.6849 10.1515C29.7697 10.1094 29.8546 10.0675 29.9395 10.026Z" stroke="#FECE00" stroke-width="0.5"/>
<path d="M27.432 11.3567L27.4372 11.3659L27.4381 11.3654L29.1731 14.3704L28.9227 14.5149L27.1877 11.51L27.1909 11.5081L27.1857 11.4991C27.2677 11.4513 27.3498 11.4039 27.432 11.3567Z" stroke="#FECE00" stroke-width="0.5"/>
<path d="M25.017 12.8502L25.8176 14.0541C25.7417 14.1045 25.6659 14.1553 25.5902 14.2063L24.7818 13.0077C24.8601 12.9549 24.9385 12.9024 25.017 12.8502Z" stroke="#FECE00" stroke-width="0.5"/>
<path d="M22.7075 14.4977L23.5852 15.6465C23.5126 15.702 23.4402 15.7577 23.3678 15.8137L22.4826 14.6707C22.5574 14.6127 22.6324 14.5551 22.7075 14.4977Z" stroke="#FECE00" stroke-width="0.5"/>
<path d="M20.5094 16.2936C20.438 16.3559 20.3667 16.4185 20.2956 16.4814L21.2534 17.5644C21.3222 17.5036 21.3911 17.4431 21.4601 17.3828L20.5094 16.2936Z" stroke="#FECE00" stroke-width="0.5"/>
<path d="M18.4321 18.2282L18.2276 18.4327L20.6812 20.8862L20.8857 20.6818L18.4321 18.2282Z" stroke="#FECE00" stroke-width="0.5"/>
<path d="M16.4808 20.2962L17.5638 21.2539C17.503 21.3227 17.4425 21.3916 17.3822 21.4606L16.293 20.5099C16.3553 20.4385 16.4179 20.3673 16.4808 20.2962Z" stroke="#FECE00" stroke-width="0.5"/>
<path d="M14.67 22.483L15.8131 23.3683C15.7571 23.4406 15.7013 23.5131 15.6459 23.5857L14.497 22.708C14.5544 22.6328 14.6121 22.5579 14.67 22.483Z" stroke="#FECE00" stroke-width="0.5"/>
<path d="M13.007 24.7822L14.2056 25.5906C14.1546 25.6663 14.1039 25.7421 14.0534 25.818L12.8494 25.0174C12.9017 24.9389 12.9542 24.8605 13.007 24.7822Z" stroke="#FECE00" stroke-width="0.5"/>
<path d="M11.3651 27.4376L11.3646 27.4386L14.3696 29.1735L14.5142 28.9231L11.5091 27.1882L11.5073 27.1913L11.4983 27.1861C11.4506 27.268 11.4031 27.3501 11.3559 27.4323L11.3651 27.4376Z" stroke="#FECE00" stroke-width="0.5"/>
<path d="M10.1507 29.6852L11.4453 30.3291C11.4046 30.411 11.3641 30.493 11.3239 30.5751L10.0252 29.9398C10.0667 29.8549 10.1086 29.77 10.1507 29.6852Z" stroke="#FECE00" stroke-width="0.5"/>
<path d="M8.97138 32.2666L10.3055 32.8238C10.2703 32.9081 10.2354 32.9924 10.2008 33.0769L8.86301 32.5286C8.89883 32.4412 8.93496 32.3539 8.97138 32.2666Z" stroke="#FECE00" stroke-width="0.5"/>
<path d="M7.96441 34.9203L9.33231 35.3885C9.30265 35.4751 9.27328 35.5619 9.24421 35.6487L7.87327 35.1895C7.90335 35.0997 7.93373 35.0099 7.96441 34.9203Z" stroke="#FECE00" stroke-width="0.5"/>
<path d="M7.13371 37.635L7.14059 37.6368L7.14123 37.6344L10.4929 38.5325L10.4181 38.8118L7.06639 37.9137L7.06713 37.911L7.0605 37.9092C7.0846 37.8177 7.109 37.7263 7.13371 37.635Z" stroke="#FECE00" stroke-width="0.5"/>
<path d="M6.48274 40.3975L7.90009 40.683C7.88204 40.7726 7.86429 40.8623 7.84683 40.952L6.42764 40.6758C6.4457 40.583 6.46407 40.4903 6.48274 40.3975Z" stroke="#FECE00" stroke-width="0.5"/>
<path d="M6.0135 43.1971L7.44645 43.3894C7.43427 43.4801 7.42239 43.5709 7.4108 43.6617L5.97663 43.4786C5.98861 43.3848 6.0009 43.2909 6.0135 43.1971Z" stroke="#FECE00" stroke-width="0.5"/>
<path d="M5.72764 46.0212L7.17007 46.1199C7.16383 46.2112 7.15788 46.3025 7.15223 46.3938L5.70918 46.3045C5.71503 46.2101 5.72118 46.1157 5.72764 46.0212Z" stroke="#FECE00" stroke-width="0.5"/>
<path d="M7.15223 51.6059C7.15788 51.6972 7.16383 51.7885 7.17007 51.8798L5.72764 51.9785C5.72118 51.8841 5.71503 51.7897 5.70919 51.6952L7.15223 51.6059Z" stroke="#FECE00" stroke-width="0.5"/>
<path d="M7.4108 54.3381C7.42239 54.4289 7.43427 54.5196 7.44645 54.6103L6.0135 54.8027C6.0009 54.7089 5.98861 54.615 5.97663 54.5211L7.4108 54.3381Z" stroke="#FECE00" stroke-width="0.5"/>
<path d="M7.84683 57.0478C7.86429 57.1375 7.88204 57.2272 7.90009 57.3168L6.48274 57.6022C6.46407 57.5095 6.4457 57.4167 6.42764 57.3239L7.84683 57.0478Z" stroke="#FECE00" stroke-width="0.5"/>
<path d="M29.6849 87.8482L30.3287 86.5537C30.4107 86.5944 30.4927 86.6349 30.5748 86.6751L29.9395 87.9738C29.8545 87.9322 29.7697 87.8904 29.6849 87.8482Z" stroke="#FECE00" stroke-width="0.5"/>
<path d="M32.2664 89.0275L32.8235 87.6934C32.9078 87.7286 32.9922 87.7635 33.0767 87.7982L32.5283 89.1359C32.4409 89.1001 32.3536 89.064 32.2664 89.0275Z" stroke="#FECE00" stroke-width="0.5"/>
<path d="M34.9201 90.0345L35.3883 88.6666C35.4749 88.6963 35.5617 88.7256 35.6485 88.7547L35.1893 90.1256C35.0995 90.0956 35.0097 90.0652 34.9201 90.0345Z" stroke="#FECE00" stroke-width="0.5"/>
<path d="M37.9108 90.9318L37.9136 90.9325L38.8117 87.5809L38.5324 87.5061L37.6343 90.8577L37.6367 90.8583L37.6348 90.8652C37.7262 90.8899 37.8176 90.9143 37.9091 90.9384L37.9108 90.9318Z" stroke="#FECE00" stroke-width="0.5"/>
<path d="M40.3975 91.5161L40.6829 90.0988C40.7725 90.1169 40.8622 90.1346 40.9519 90.1521L40.6758 91.5712C40.583 91.5532 40.4902 91.5348 40.3975 91.5161Z" stroke="#FECE00" stroke-width="0.5"/>
<path d="M43.1971 91.9854L43.3894 90.5525C43.4801 90.5646 43.5709 90.5765 43.6617 90.5881L43.4786 92.0222C43.3848 92.0102 43.2909 91.998 43.1971 91.9854Z" stroke="#FECE00" stroke-width="0.5"/>
<path d="M46.0213 92.2712L46.12 90.8288C46.2113 90.8351 46.3026 90.841 46.3939 90.8467L46.3046 92.2897C46.2102 92.2838 46.1157 92.2777 46.0213 92.2712Z" stroke="#FECE00" stroke-width="0.5"/>
<path d="M51.9787 92.2712C51.8843 92.2777 51.7899 92.2838 51.6954 92.2897L51.6061 90.8467C51.6974 90.841 51.7887 90.8351 51.88 90.8288L51.9787 92.2712Z" stroke="#FECE00" stroke-width="0.5"/>
<path d="M54.5214 92.0222C54.5873 92.0138 54.6531 92.0052 54.719 91.9965C54.747 91.9928 54.775 91.9891 54.803 91.9854L54.6106 90.5525C54.5199 90.5646 54.4291 90.5765 54.3383 90.5881L54.5214 92.0222Z" stroke="#FECE00" stroke-width="0.5"/>
<path d="M57.3242 91.5712L57.0481 90.1521C57.1378 90.1346 57.2275 90.1169 57.3171 90.0988L57.6025 91.5161C57.5759 91.5215 57.5493 91.5268 57.5226 91.5322L57.4783 91.541C57.4539 91.5458 57.4295 91.5506 57.4051 91.5554L57.3242 91.5712Z" stroke="#FECE00" stroke-width="0.5"/>
<path d="M60.3633 90.8583L60.3657 90.8577L59.4676 87.5061L59.1883 87.5809L60.0864 90.9325L60.0892 90.9318L60.0909 90.9384C60.1824 90.9143 60.2738 90.8899 60.3652 90.8652L60.3633 90.8583Z" stroke="#FECE00" stroke-width="0.5"/>
<path d="M62.8107 90.1256L62.3515 88.7547C62.4383 88.7257 62.5251 88.6963 62.6117 88.6666L63.0799 90.0345C62.9903 90.0652 62.9005 90.0956 62.8107 90.1256Z" stroke="#FECE00" stroke-width="0.5"/>
<path d="M65.4717 89.1359L64.9233 87.7982C65.0078 87.7635 65.0922 87.7286 65.1765 87.6934L65.7336 89.0276C65.684 89.0483 65.6344 89.0689 65.5848 89.0894C65.5604 89.0994 65.5361 89.1095 65.5117 89.1195L65.4717 89.1359Z" stroke="#FECE00" stroke-width="0.5"/>
<path d="M68.0605 87.9738C68.1455 87.9322 68.2303 87.8904 68.3151 87.8482L67.6713 86.5537L67.6328 86.5728C67.6098 86.5842 67.5869 86.5956 67.564 86.6069C67.5177 86.6297 67.4715 86.6524 67.4252 86.6751L68.0605 87.9738Z" stroke="#FECE00" stroke-width="0.5"/>
<path d="M70.568 86.6431C70.6503 86.5959 70.7324 86.5484 70.8143 86.5007L70.8091 86.4917L70.8123 86.4898L69.0773 83.4848L68.8269 83.6294L70.5619 86.6344L70.5628 86.6338L70.568 86.6431Z" stroke="#FECE00" stroke-width="0.5"/>
<path d="M72.983 85.1496L72.1825 83.9457C72.2584 83.8952 72.3341 83.8445 72.4098 83.7934L73.2182 84.9921L73.1489 85.0387L73.112 85.0635C73.0691 85.0922 73.0261 85.121 72.983 85.1496Z" stroke="#FECE00" stroke-width="0.5"/>
<path d="M75.2925 83.5021L74.4148 82.3532L74.4449 82.3302C74.4701 82.3109 74.4954 82.2915 74.5206 82.2721C74.5578 82.2435 74.595 82.2148 74.6322 82.186L75.5174 83.3291C75.4426 83.387 75.3677 83.4447 75.2925 83.5021Z" stroke="#FECE00" stroke-width="0.5"/>
<path d="M77.4906 81.7061C77.562 81.6438 77.6333 81.5812 77.7044 81.5183L76.7466 80.4353C76.6778 80.4961 76.6089 80.5567 76.5399 80.6169L77.4906 81.7061Z" stroke="#FECE00" stroke-width="0.5"/>
<path d="M79.5679 79.7715L77.1143 77.318L77.3188 77.1135L79.7724 79.5671L79.5679 79.7715Z" stroke="#FECE00" stroke-width="0.5"/>
<path d="M81.5192 77.7036L80.4362 76.7458C80.4871 76.6882 80.5378 76.6305 80.5884 76.5728L80.6178 76.5391L81.707 77.4898C81.6447 77.5612 81.5821 77.6325 81.5192 77.7036Z" stroke="#FECE00" stroke-width="0.5"/>
<path d="M83.33 75.5167L82.1869 74.6315C82.2429 74.5591 82.2987 74.4867 82.3542 74.414L83.503 75.2918C83.4456 75.3669 83.388 75.4419 83.33 75.5167Z" stroke="#FECE00" stroke-width="0.5"/>
<path d="M84.993 73.2175L83.7944 72.4091C83.8454 72.3335 83.8962 72.2577 83.9466 72.1818L85.1506 72.9823C85.0983 73.0609 85.0458 73.1393 84.993 73.2175Z" stroke="#FECE00" stroke-width="0.5"/>
<path d="M86.5017 70.8137L86.4926 70.8084L86.4908 70.8117L83.4857 69.0768L83.6303 68.8263L86.6353 70.5613L86.6348 70.5621L86.6441 70.5674C86.5969 70.6496 86.5494 70.7317 86.5017 70.8137Z" stroke="#FECE00" stroke-width="0.5"/>
<path d="M87.8493 68.3145L86.5547 67.6707C86.5955 67.5888 86.6359 67.5068 86.6761 67.4247L87.9748 68.0599C87.9333 68.1449 87.8914 68.2297 87.8493 68.3145Z" stroke="#FECE00" stroke-width="0.5"/>
<path d="M92.0073 54.6455C92.0005 54.6979 91.9935 54.7503 91.9865 54.8027L90.5536 54.6103C90.5657 54.5196 90.5776 54.4289 90.5892 54.3381L92.0234 54.5211C92.0181 54.5626 92.0127 54.6041 92.0073 54.6455Z" stroke="#FECE00" stroke-width="0.5"/>
<path d="M92.2908 51.6952C92.285 51.7897 92.2788 51.8841 92.2724 51.9785L90.8299 51.8798C90.8362 51.7885 90.8421 51.6972 90.8478 51.6059L92.2908 51.6952Z" stroke="#FECE00" stroke-width="0.5"/>
<path d="M49.1447 88.9037V97H48.8555L48.8554 88.9031H49.1446L49.1447 88.9037Z" stroke="#FECE00" stroke-width="0.5"/>
<path d="M1 49.1445V48.8553L9.0958 48.8553L9.09586 49.1445H1Z" stroke="#FECE00" stroke-width="0.5"/>
<path d="M88.9042 48.8553L88.9042 49.1445H97V48.8553L88.9042 48.8553Z" stroke="#FECE00" stroke-width="0.5"/>
<path fill-rule="evenodd" clip-rule="evenodd" d="M10.4897 54.6278H32.338V82.8761H10.4897V54.6278ZM14.4621 58.6002V78.9036H28.3655V58.6002H14.4621Z" fill="white"/>
<path fill-rule="evenodd" clip-rule="evenodd" d="M18.4345 62.7933H16.2276V60.145H18.4345V62.7933Z" fill="white"/>
<path d="M68.6327 51.9795H39.966L37.3215 54.5017H34.5449V58.4741H38.9121L41.5566 55.9519H64.1567C64.0118 56.3924 63.8308 56.7896 63.6152 57.0866C63.5953 57.1141 63.4607 57.2588 63.0679 57.444C62.6983 57.6182 62.2358 57.7648 61.7437 57.8804C61.2598 57.9941 60.7988 58.0661 60.4557 58.1094C60.2859 58.1308 60.1492 58.1447 60.0584 58.153C60.0319 58.1554 60.0094 58.1573 59.9913 58.1588H46.9758V62.1312H60.129C60.4044 62.1137 60.6791 62.0851 60.9529 62.0506C61.3907 61.9953 61.9958 61.9018 62.6523 61.7475C63.3006 61.5952 64.0529 61.3713 64.7617 61.0372C65.0218 60.9146 65.2993 60.7664 65.5751 60.5864H89.9379V60.8854L57.9443 71.1308L38.3138 68.0672H34.5449V72.0396H38.0057L58.2605 75.2006L93.9104 63.7845V56.614H68.1037C68.1724 56.36 68.2282 56.1203 68.2739 55.9024C68.3802 55.3954 68.4428 54.9499 68.4792 54.6284C68.5518 53.9866 68.5772 53.339 68.6024 52.6926C68.6117 52.4546 68.621 52.2168 68.6327 51.9795Z" fill="white"/>
<path fill-rule="evenodd" clip-rule="evenodd" d="M53.3033 21.7451H63.8964V46.021H53.3033V21.7451ZM55.9515 24.3934V43.3727H61.2481V24.3934H55.9515Z" fill="#FECE00"/>
<path fill-rule="evenodd" clip-rule="evenodd" d="M80.2274 5.85547H90.8205V46.2417H80.2274V5.85547ZM82.8757 8.50374V43.5934H88.1722V8.50374H82.8757Z" fill="#FECE00"/>
<path fill-rule="evenodd" clip-rule="evenodd" d="M66.7653 14.021H77.3584V46.2417H66.7653V14.021ZM69.4136 16.6693V43.5934H74.7101V16.6693H69.4136Z" fill="#FECE00"/>
<path fill-rule="evenodd" clip-rule="evenodd" d="M39.8412 28.1451H50.4343V46.2417H39.8412V28.1451ZM42.4895 30.7934V43.5934H47.786V30.7934H42.4895Z" fill="#FECE00"/>
</svg>
