<svg width="98" height="98" viewBox="0 0 98 98" fill="none" xmlns="http://www.w3.org/2000/svg">
<path d="M49.1446 9.09663H48.8554L48.8555 1H49.1447L49.1446 9.09663Z" fill="#FECE00"/>
<path d="M79.7724 18.4327L79.5679 18.2282L77.1143 20.6818L77.3188 20.8862L79.7724 18.4327Z" fill="#FECE00"/>
<path d="M77.7044 16.4814L76.7466 17.5645C76.6778 17.5036 76.6089 17.4431 76.5399 17.3828L77.4906 16.2936C77.562 16.356 77.6333 16.4186 77.7044 16.4814Z" fill="#FECE00"/>
<path d="M75.5175 14.6707L74.6322 15.8137C74.5599 15.7577 74.4874 15.702 74.4148 15.6465L75.2926 14.4977C75.3677 14.5551 75.4426 14.6127 75.5175 14.6707Z" fill="#FECE00"/>
<path d="M73.2182 13.0077L72.4098 14.2063C72.3342 14.1553 72.2584 14.1045 72.1825 14.0541L72.983 12.8502C73.0616 12.9024 73.14 12.9549 73.2182 13.0077Z" fill="#FECE00"/>
<path d="M70.8143 11.4991C70.7324 11.4513 70.6503 11.4039 70.5681 11.3567L70.5627 11.366L70.5618 11.3654L68.8268 14.3704L69.0773 14.515L70.8122 11.51L70.809 11.5082L70.8143 11.4991Z" fill="#FECE00"/>
<path d="M68.3151 10.1515L67.6713 11.446C67.5894 11.4053 67.5073 11.3649 67.4252 11.3247L68.0605 10.026C68.1455 10.0675 68.2303 10.1094 68.3151 10.1515Z" fill="#FECE00"/>
<path d="M65.7336 8.9722L65.1765 10.3063C65.0922 10.2711 65.0078 10.2362 64.9233 10.2016L65.4717 8.86383C65.5591 8.89965 65.6464 8.93578 65.7336 8.9722Z" fill="#FECE00"/>
<path d="M63.0799 7.96525L62.6117 9.33312C62.5251 9.30346 62.4383 9.27409 62.3515 9.24502L62.8107 7.87411C62.9006 7.90419 62.9903 7.93457 63.0799 7.96525Z" fill="#FECE00"/>
<path d="M60.3652 7.13457L60.3633 7.14146L60.3657 7.1421L59.4676 10.4937L59.1883 10.4189L60.0864 7.06726L60.0892 7.068L60.0909 7.06136C60.1824 7.08546 60.2738 7.10987 60.3652 7.13457Z" fill="#FECE00"/>
<path d="M57.6025 6.48362L57.3171 7.90093C57.2275 7.88289 57.1378 7.86513 57.0481 7.84767L57.3242 6.42852C57.4171 6.44658 57.5098 6.46495 57.6025 6.48362Z" fill="#FECE00"/>
<path d="M54.803 6.01439L54.6106 7.4473C54.5199 7.43513 54.4291 7.42324 54.3383 7.41166L54.5214 5.97752C54.6153 5.9895 54.7091 6.00179 54.803 6.01439Z" fill="#FECE00"/>
<path d="M51.9787 5.72854L51.88 7.17093C51.7887 7.16469 51.6974 7.15874 51.6061 7.15309L51.6954 5.71008C51.7899 5.71592 51.8843 5.72208 51.9787 5.72854Z" fill="#FECE00"/>
<path d="M46.3046 5.71008L46.3939 7.15309C46.3026 7.15874 46.2113 7.16469 46.12 7.17093L46.0213 5.72854C46.1157 5.72208 46.2101 5.71592 46.3046 5.71008Z" fill="#FECE00"/>
<path d="M43.4786 5.97752L43.6617 7.41166C43.5709 7.42324 43.4801 7.43512 43.3894 7.4473L43.1971 6.01438C43.2909 6.00179 43.3848 5.9895 43.4786 5.97752Z" fill="#FECE00"/>
<path d="M40.6758 6.42852L40.9519 7.84767C40.8622 7.86513 40.7725 7.88288 40.6829 7.90093L40.3975 6.48361C40.4902 6.46494 40.583 6.44658 40.6758 6.42852Z" fill="#FECE00"/>
<path d="M37.9091 7.06136L37.9109 7.06799L37.9136 7.06725L38.8117 10.4189L38.5324 10.4937L37.6343 7.14209L37.6367 7.14144L37.6348 7.13457C37.7262 7.10986 37.8176 7.08546 37.9091 7.06136Z" fill="#FECE00"/>
<path d="M35.1893 7.87411L35.6485 9.24502C35.5617 9.27409 35.475 9.30346 35.3883 9.33311L34.9201 7.96525C35.0097 7.93457 35.0995 7.90419 35.1893 7.87411Z" fill="#FECE00"/>
<path d="M32.5283 8.86382L33.0767 10.2016C32.9922 10.2362 32.9078 10.2711 32.8235 10.3063L32.2664 8.97219C32.3536 8.93577 32.4409 8.89964 32.5283 8.86382Z" fill="#FECE00"/>
<path d="M29.9395 10.026L30.5748 11.3247C30.4927 11.3649 30.4107 11.4053 30.3288 11.446L29.6849 10.1515C29.7697 10.1094 29.8546 10.0675 29.9395 10.026Z" fill="#FECE00"/>
<path d="M27.432 11.3567L27.4372 11.3659L27.4381 11.3654L29.1731 14.3704L28.9227 14.5149L27.1877 11.51L27.1909 11.5081L27.1857 11.4991C27.2677 11.4513 27.3498 11.4039 27.432 11.3567Z" fill="#FECE00"/>
<path d="M25.017 12.8502L25.8176 14.0541C25.7417 14.1045 25.6659 14.1553 25.5902 14.2063L24.7818 13.0077C24.8601 12.9549 24.9385 12.9024 25.017 12.8502Z" fill="#FECE00"/>
<path d="M22.7075 14.4977L23.5852 15.6465C23.5126 15.702 23.4402 15.7577 23.3678 15.8137L22.4826 14.6707C22.5574 14.6127 22.6324 14.5551 22.7075 14.4977Z" fill="#FECE00"/>
<path d="M20.5094 16.2936C20.438 16.3559 20.3667 16.4185 20.2956 16.4814L21.2534 17.5644C21.3222 17.5036 21.3911 17.4431 21.4601 17.3828L20.5094 16.2936Z" fill="#FECE00"/>
<path d="M18.4321 18.2282L18.2276 18.4327L20.6812 20.8862L20.8857 20.6818L18.4321 18.2282Z" fill="#FECE00"/>
<path d="M16.4808 20.2962L17.5638 21.2539C17.503 21.3227 17.4425 21.3916 17.3822 21.4606L16.293 20.5099C16.3553 20.4385 16.4179 20.3673 16.4808 20.2962Z" fill="#FECE00"/>
<path d="M14.67 22.483L15.8131 23.3683C15.7571 23.4406 15.7013 23.5131 15.6459 23.5857L14.497 22.708C14.5544 22.6328 14.6121 22.5579 14.67 22.483Z" fill="#FECE00"/>
<path d="M13.007 24.7822L14.2056 25.5906C14.1546 25.6663 14.1039 25.7421 14.0534 25.818L12.8494 25.0174C12.9017 24.9389 12.9542 24.8605 13.007 24.7822Z" fill="#FECE00"/>
<path d="M11.3651 27.4376L11.3646 27.4386L14.3696 29.1735L14.5142 28.9231L11.5091 27.1882L11.5073 27.1913L11.4983 27.1861C11.4506 27.268 11.4031 27.3501 11.3559 27.4323L11.3651 27.4376Z" fill="#FECE00"/>
<path d="M10.1507 29.6852L11.4453 30.3291C11.4046 30.411 11.3641 30.493 11.3239 30.5751L10.0252 29.9398C10.0667 29.8549 10.1086 29.77 10.1507 29.6852Z" fill="#FECE00"/>
<path d="M8.97138 32.2666L10.3055 32.8238C10.2703 32.9081 10.2354 32.9924 10.2008 33.0769L8.86301 32.5286C8.89883 32.4412 8.93496 32.3539 8.97138 32.2666Z" fill="#FECE00"/>
<path d="M7.96441 34.9203L9.33231 35.3885C9.30265 35.4751 9.27328 35.5619 9.24421 35.6487L7.87327 35.1895C7.90335 35.0997 7.93373 35.0099 7.96441 34.9203Z" fill="#FECE00"/>
<path d="M7.13371 37.635L7.14059 37.6368L7.14123 37.6344L10.4929 38.5325L10.4181 38.8118L7.06639 37.9137L7.06713 37.911L7.0605 37.9092C7.0846 37.8177 7.109 37.7263 7.13371 37.635Z" fill="#FECE00"/>
<path d="M6.48274 40.3975L7.90009 40.683C7.88204 40.7726 7.86429 40.8623 7.84683 40.952L6.42764 40.6758C6.4457 40.583 6.46407 40.4903 6.48274 40.3975Z" fill="#FECE00"/>
<path d="M6.0135 43.1971L7.44645 43.3894C7.43427 43.4801 7.42239 43.5709 7.4108 43.6617L5.97663 43.4786C5.98861 43.3848 6.0009 43.2909 6.0135 43.1971Z" fill="#FECE00"/>
<path d="M5.72764 46.0212L7.17007 46.1199C7.16383 46.2112 7.15788 46.3025 7.15223 46.3938L5.70918 46.3045C5.71503 46.2101 5.72118 46.1157 5.72764 46.0212Z" fill="#FECE00"/>
<path d="M7.15223 51.6059C7.15788 51.6972 7.16383 51.7885 7.17007 51.8798L5.72764 51.9785C5.72118 51.8841 5.71503 51.7897 5.70919 51.6952L7.15223 51.6059Z" fill="#FECE00"/>
<path d="M7.4108 54.3381C7.42239 54.4289 7.43427 54.5196 7.44645 54.6103L6.0135 54.8027C6.0009 54.7089 5.98861 54.615 5.97663 54.5211L7.4108 54.3381Z" fill="#FECE00"/>
<path d="M7.84683 57.0478C7.86429 57.1375 7.88204 57.2272 7.90009 57.3168L6.48274 57.6022C6.46407 57.5095 6.4457 57.4167 6.42764 57.3239L7.84683 57.0478Z" fill="#FECE00"/>
<path d="M7.06712 60.0888L7.06638 60.086L10.4181 59.188L10.4929 59.4673L7.14122 60.3653L7.14057 60.3629L7.13371 60.3648C7.109 60.2734 7.0846 60.182 7.06049 60.0905L7.06712 60.0888Z" fill="#FECE00"/>
<path d="M16.293 77.4898C16.3553 77.5612 16.4179 77.6325 16.4808 77.7036L17.5638 76.7458C17.503 76.677 17.4425 76.6081 17.3822 76.5391L16.293 77.4898Z" fill="#FECE00"/>
<path d="M18.3299 79.6693L18.2276 79.5671L20.6812 77.1135L20.8857 77.318L18.4321 79.7715L18.3838 79.7232C18.3658 79.7052 18.3478 79.6873 18.3299 79.6693Z" fill="#FECE00"/>
<path d="M20.2956 81.5183L21.2534 80.4353C21.3222 80.4961 21.3911 80.5566 21.4601 80.6169L20.5094 81.7061C20.438 81.6438 20.3667 81.5812 20.2956 81.5183Z" fill="#FECE00"/>
<path d="M22.4826 83.3291L23.3678 82.186C23.4401 82.242 23.5126 82.2978 23.5852 82.3532L22.7075 83.5021C22.6323 83.4447 22.5574 83.387 22.4826 83.3291Z" fill="#FECE00"/>
<path d="M24.7818 84.9921L25.5902 83.7934C25.6659 83.8444 25.7416 83.8952 25.8175 83.9457L25.017 85.1496C24.9385 85.0974 24.86 85.0448 24.7818 84.9921Z" fill="#FECE00"/>
<path d="M27.1857 86.5007L27.1909 86.4917L27.1877 86.4899L28.9226 83.4849L29.1731 83.6295L27.4381 86.6344L27.4372 86.6339L27.4319 86.643C27.3497 86.5959 27.2676 86.5484 27.1857 86.5007Z" fill="#FECE00"/>
<path d="M29.6849 87.8482L30.3287 86.5537C30.4107 86.5944 30.4927 86.6349 30.5748 86.6751L29.9395 87.9738C29.8545 87.9322 29.7697 87.8904 29.6849 87.8482Z" fill="#FECE00"/>
<path d="M32.2664 89.0275L32.8235 87.6934C32.9078 87.7286 32.9922 87.7635 33.0767 87.7982L32.5283 89.1359C32.4409 89.1001 32.3536 89.064 32.2664 89.0275Z" fill="#FECE00"/>
<path d="M34.9201 90.0345L35.3883 88.6666C35.4749 88.6963 35.5617 88.7256 35.6485 88.7547L35.1893 90.1256C35.0995 90.0956 35.0097 90.0652 34.9201 90.0345Z" fill="#FECE00"/>
<path d="M37.9108 90.9318L37.9136 90.9325L38.8117 87.5809L38.5324 87.5061L37.6343 90.8577L37.6367 90.8583L37.6348 90.8652C37.7262 90.8899 37.8176 90.9143 37.9091 90.9384L37.9108 90.9318Z" fill="#FECE00"/>
<path d="M40.3975 91.5161L40.6829 90.0988C40.7725 90.1169 40.8622 90.1346 40.9519 90.1521L40.6758 91.5712C40.583 91.5532 40.4902 91.5348 40.3975 91.5161Z" fill="#FECE00"/>
<path d="M43.1971 91.9854L43.3894 90.5525C43.4801 90.5646 43.5709 90.5765 43.6617 90.5881L43.4786 92.0222C43.3848 92.0102 43.2909 91.998 43.1971 91.9854Z" fill="#FECE00"/>
<path d="M46.0213 92.2712L46.12 90.8288C46.2113 90.8351 46.3026 90.841 46.3939 90.8467L46.3046 92.2897C46.2102 92.2838 46.1157 92.2777 46.0213 92.2712Z" fill="#FECE00"/>
<path d="M51.9787 92.2712C51.8843 92.2777 51.7899 92.2838 51.6954 92.2897L51.6061 90.8467C51.6974 90.841 51.7887 90.8351 51.88 90.8288L51.9787 92.2712Z" fill="#FECE00"/>
<path d="M54.5214 92.0222C54.5873 92.0138 54.6531 92.0052 54.719 91.9965C54.747 91.9928 54.775 91.9891 54.803 91.9854L54.6106 90.5525C54.5199 90.5646 54.4291 90.5765 54.3383 90.5881L54.5214 92.0222Z" fill="#FECE00"/>
<path d="M57.3242 91.5712L57.0481 90.1521C57.1378 90.1346 57.2275 90.1169 57.3171 90.0988L57.6025 91.5161C57.5759 91.5215 57.5493 91.5268 57.5226 91.5322L57.4783 91.541C57.4539 91.5458 57.4295 91.5506 57.4051 91.5554L57.3242 91.5712Z" fill="#FECE00"/>
<path d="M60.3633 90.8583L60.3657 90.8577L59.4676 87.5061L59.1883 87.5809L60.0864 90.9325L60.0892 90.9318L60.0909 90.9384C60.1824 90.9143 60.2738 90.8899 60.3652 90.8652L60.3633 90.8583Z" fill="#FECE00"/>
<path d="M62.8107 90.1256L62.3515 88.7547C62.4383 88.7257 62.5251 88.6963 62.6117 88.6666L63.0799 90.0345C62.9903 90.0652 62.9005 90.0956 62.8107 90.1256Z" fill="#FECE00"/>
<path d="M65.4717 89.1359L64.9233 87.7982C65.0078 87.7635 65.0922 87.7286 65.1765 87.6934L65.7336 89.0276C65.684 89.0483 65.6344 89.0689 65.5848 89.0894C65.5604 89.0994 65.5361 89.1095 65.5117 89.1195L65.4717 89.1359Z" fill="#FECE00"/>
<path d="M68.0605 87.9738C68.1455 87.9322 68.2303 87.8904 68.3151 87.8482L67.6713 86.5537L67.6328 86.5728C67.6098 86.5842 67.5869 86.5956 67.564 86.6069C67.5177 86.6297 67.4715 86.6524 67.4252 86.6751L68.0605 87.9738Z" fill="#FECE00"/>
<path d="M70.568 86.6431C70.6503 86.5959 70.7324 86.5484 70.8143 86.5007L70.8091 86.4917L70.8123 86.4898L69.0773 83.4848L68.8269 83.6294L70.5619 86.6344L70.5628 86.6338L70.568 86.6431Z" fill="#FECE00"/>
<path d="M72.983 85.1496L72.1825 83.9457C72.2584 83.8952 72.3341 83.8445 72.4098 83.7934L73.2182 84.9921L73.1489 85.0387L73.112 85.0635C73.0691 85.0922 73.0261 85.121 72.983 85.1496Z" fill="#FECE00"/>
<path d="M75.2925 83.5021L74.4148 82.3532L74.4449 82.3302C74.4701 82.3109 74.4954 82.2915 74.5206 82.2721C74.5578 82.2435 74.595 82.2148 74.6322 82.186L75.5174 83.3291C75.4426 83.387 75.3677 83.4447 75.2925 83.5021Z" fill="#FECE00"/>
<path d="M77.4906 81.7061C77.562 81.6438 77.6333 81.5812 77.7044 81.5183L76.7466 80.4353C76.6778 80.4961 76.6089 80.5567 76.5399 80.6169L77.4906 81.7061Z" fill="#FECE00"/>
<path d="M79.5679 79.7715L77.1143 77.318L77.3188 77.1135L79.7724 79.5671L79.5679 79.7715Z" fill="#FECE00"/>
<path d="M81.5192 77.7036L80.4362 76.7458C80.4871 76.6882 80.5378 76.6305 80.5884 76.5728L80.6178 76.5391L81.707 77.4898C81.6447 77.5612 81.5821 77.6325 81.5192 77.7036Z" fill="#FECE00"/>
<path d="M90.9329 60.0888L90.9336 60.086L87.5819 59.188L87.5071 59.4673L90.8588 60.3653L90.8594 60.3629L90.8663 60.3648C90.891 60.2734 90.9154 60.182 90.9395 60.0905L90.9329 60.0888Z" fill="#FECE00"/>
<path d="M91.5724 57.3239C91.5543 57.4167 91.5359 57.5095 91.5173 57.6022L90.0999 57.3168C90.118 57.2272 90.1357 57.1375 90.1532 57.0478L91.5724 57.3239Z" fill="#FECE00"/>
<path d="M92.0073 54.6455C92.0005 54.6979 91.9935 54.7503 91.9865 54.8027L90.5536 54.6103C90.5657 54.5196 90.5776 54.4289 90.5892 54.3381L92.0234 54.5211C92.0181 54.5626 92.0127 54.6041 92.0073 54.6455Z" fill="#FECE00"/>
<path d="M92.2908 51.6952C92.285 51.7897 92.2788 51.8841 92.2724 51.9785L90.8299 51.8798C90.8362 51.7885 90.8421 51.6972 90.8478 51.6059L92.2908 51.6952Z" fill="#FECE00"/>
<path d="M92.2908 46.3045L90.8478 46.3938C90.8421 46.3025 90.8362 46.2112 90.8299 46.1199L92.2724 46.0212C92.2788 46.1157 92.285 46.2101 92.2908 46.3045Z" fill="#FECE00"/>
<path d="M92.0234 43.4786L90.5892 43.6617C90.5776 43.5709 90.5657 43.4801 90.5536 43.3894L91.9865 43.1971C91.9991 43.2909 92.0114 43.3847 92.0234 43.4786Z" fill="#FECE00"/>
<path d="M91.5724 40.6758L90.1532 40.952C90.1357 40.8623 90.118 40.7726 90.0999 40.683L91.5173 40.3976C91.5359 40.4903 91.5543 40.583 91.5724 40.6758Z" fill="#FECE00"/>
<path d="M90.9395 37.9092C90.9293 37.8706 90.9191 37.832 90.9088 37.7934C90.9031 37.7719 90.8973 37.7503 90.8916 37.7288L90.8786 37.6807L90.8663 37.635L90.8594 37.6368L90.8588 37.6344L87.5071 38.5325L87.5819 38.8118L90.9336 37.9137L90.9329 37.911L90.9395 37.9092Z" fill="#FECE00"/>
<path d="M90.1267 35.1895L88.7558 35.6487C88.74 35.6014 88.7241 35.5542 88.7081 35.5069C88.6947 35.4674 88.6812 35.428 88.6677 35.3885L90.0356 34.9203C90.0663 35.0099 90.0967 35.0997 90.1267 35.1895Z" fill="#FECE00"/>
<path d="M89.137 32.5286L87.7992 33.0769C87.7646 32.9925 87.7297 32.9081 87.6945 32.8238L89.0286 32.2667C89.0514 32.3212 89.074 32.3757 89.0966 32.4303L89.1102 32.4634L89.137 32.5286Z" fill="#FECE00"/>
<path d="M87.9748 29.9399C87.9333 29.8549 87.8914 29.77 87.8493 29.6853L86.5547 30.3291C86.5955 30.411 86.6359 30.493 86.6761 30.5751L87.9748 29.9399Z" fill="#FECE00"/>
<path d="M86.4927 27.1913L86.4908 27.1881L83.4858 28.923L83.6303 29.1735L86.6354 27.4385L86.6349 27.4376L86.6441 27.4323C86.5969 27.3501 86.5495 27.268 86.5017 27.1861L86.4927 27.1913Z" fill="#FECE00"/>
<path d="M85.1506 25.0174L83.9466 25.818C83.8962 25.7421 83.8454 25.6663 83.7944 25.5906L84.993 24.7822C85.0458 24.8605 85.0984 24.9389 85.1506 25.0174Z" fill="#FECE00"/>
<path d="M83.503 22.708L82.3542 23.5857C82.2987 23.5131 82.243 23.4406 82.1869 23.3683L83.33 22.4831C83.388 22.5579 83.4456 22.6329 83.503 22.708Z" fill="#FECE00"/>
<path d="M81.707 20.5099C81.6447 20.4385 81.5821 20.3673 81.5192 20.2962L80.4362 21.254C80.497 21.3227 80.5575 21.3916 80.6178 21.4607L81.707 20.5099Z" fill="#FECE00"/>
<path d="M49.1447 88.9037V97H48.8555L48.8554 88.9031H49.1446L49.1447 88.9037Z" fill="#FECE00"/>
<path d="M1 49.1445V48.8553L9.0958 48.8553L9.09586 49.1445H1Z" fill="#FECE00"/>
<path d="M88.9042 48.8553L88.9042 49.1445H97V48.8553L88.9042 48.8553Z" fill="#FECE00"/>
<path d="M49.1446 9.09663H48.8554L48.8555 1H49.1447L49.1446 9.09663Z" stroke="#FECE00" stroke-width="0.5"/>
<path d="M79.7724 18.4327L79.5679 18.2282L77.1143 20.6818L77.3188 20.8862L79.7724 18.4327Z" stroke="#FECE00" stroke-width="0.5"/>
<path d="M77.7044 16.4814L76.7466 17.5645C76.6778 17.5036 76.6089 17.4431 76.5399 17.3828L77.4906 16.2936C77.562 16.356 77.6333 16.4186 77.7044 16.4814Z" stroke="#FECE00" stroke-width="0.5"/>
<path d="M75.5175 14.6707L74.6322 15.8137C74.5599 15.7577 74.4874 15.702 74.4148 15.6465L75.2926 14.4977C75.3677 14.5551 75.4426 14.6127 75.5175 14.6707Z" stroke="#FECE00" stroke-width="0.5"/>
<path d="M73.2182 13.0077L72.4098 14.2063C72.3342 14.1553 72.2584 14.1045 72.1825 14.0541L72.983 12.8502C73.0616 12.9024 73.14 12.9549 73.2182 13.0077Z" stroke="#FECE00" stroke-width="0.5"/>
<path d="M70.8143 11.4991C70.7324 11.4513 70.6503 11.4039 70.5681 11.3567L70.5627 11.366L70.5618 11.3654L68.8268 14.3704L69.0773 14.515L70.8122 11.51L70.809 11.5082L70.8143 11.4991Z" stroke="#FECE00" stroke-width="0.5"/>
<path d="M68.3151 10.1515L67.6713 11.446C67.5894 11.4053 67.5073 11.3649 67.4252 11.3247L68.0605 10.026C68.1455 10.0675 68.2303 10.1094 68.3151 10.1515Z" stroke="#FECE00" stroke-width="0.5"/>
<path d="M65.7336 8.9722L65.1765 10.3063C65.0922 10.2711 65.0078 10.2362 64.9233 10.2016L65.4717 8.86383C65.5591 8.89965 65.6464 8.93578 65.7336 8.9722Z" stroke="#FECE00" stroke-width="0.5"/>
<path d="M63.0799 7.96525L62.6117 9.33312C62.5251 9.30346 62.4383 9.27409 62.3515 9.24502L62.8107 7.87411C62.9006 7.90419 62.9903 7.93457 63.0799 7.96525Z" stroke="#FECE00" stroke-width="0.5"/>
<path d="M60.3652 7.13457L60.3633 7.14146L60.3657 7.1421L59.4676 10.4937L59.1883 10.4189L60.0864 7.06726L60.0892 7.068L60.0909 7.06136C60.1824 7.08546 60.2738 7.10987 60.3652 7.13457Z" stroke="#FECE00" stroke-width="0.5"/>
<path d="M57.6025 6.48362L57.3171 7.90093C57.2275 7.88289 57.1378 7.86513 57.0481 7.84767L57.3242 6.42852C57.4171 6.44658 57.5098 6.46495 57.6025 6.48362Z" stroke="#FECE00" stroke-width="0.5"/>
<path d="M54.803 6.01439L54.6106 7.4473C54.5199 7.43513 54.4291 7.42324 54.3383 7.41166L54.5214 5.97752C54.6153 5.9895 54.7091 6.00179 54.803 6.01439Z" stroke="#FECE00" stroke-width="0.5"/>
<path d="M51.9787 5.72854L51.88 7.17093C51.7887 7.16469 51.6974 7.15874 51.6061 7.15309L51.6954 5.71008C51.7899 5.71592 51.8843 5.72208 51.9787 5.72854Z" stroke="#FECE00" stroke-width="0.5"/>
<path d="M46.3046 5.71008L46.3939 7.15309C46.3026 7.15874 46.2113 7.16469 46.12 7.17093L46.0213 5.72854C46.1157 5.72208 46.2101 5.71592 46.3046 5.71008Z" stroke="#FECE00" stroke-width="0.5"/>
<path d="M43.4786 5.97752L43.6617 7.41166C43.5709 7.42324 43.4801 7.43512 43.3894 7.4473L43.1971 6.01438C43.2909 6.00179 43.3848 5.9895 43.4786 5.97752Z" stroke="#FECE00" stroke-width="0.5"/>
<path d="M40.6758 6.42852L40.9519 7.84767C40.8622 7.86513 40.7725 7.88288 40.6829 7.90093L40.3975 6.48361C40.4902 6.46494 40.583 6.44658 40.6758 6.42852Z" stroke="#FECE00" stroke-width="0.5"/>
<path d="M37.9091 7.06136L37.9109 7.06799L37.9136 7.06725L38.8117 10.4189L38.5324 10.4937L37.6343 7.14209L37.6367 7.14144L37.6348 7.13457C37.7262 7.10986 37.8176 7.08546 37.9091 7.06136Z" stroke="#FECE00" stroke-width="0.5"/>
<path d="M35.1893 7.87411L35.6485 9.24502C35.5617 9.27409 35.475 9.30346 35.3883 9.33311L34.9201 7.96525C35.0097 7.93457 35.0995 7.90419 35.1893 7.87411Z" stroke="#FECE00" stroke-width="0.5"/>
<path d="M32.5283 8.86382L33.0767 10.2016C32.9922 10.2362 32.9078 10.2711 32.8235 10.3063L32.2664 8.97219C32.3536 8.93577 32.4409 8.89964 32.5283 8.86382Z" stroke="#FECE00" stroke-width="0.5"/>
<path d="M29.9395 10.026L30.5748 11.3247C30.4927 11.3649 30.4107 11.4053 30.3288 11.446L29.6849 10.1515C29.7697 10.1094 29.8546 10.0675 29.9395 10.026Z" stroke="#FECE00" stroke-width="0.5"/>
<path d="M27.432 11.3567L27.4372 11.3659L27.4381 11.3654L29.1731 14.3704L28.9227 14.5149L27.1877 11.51L27.1909 11.5081L27.1857 11.4991C27.2677 11.4513 27.3498 11.4039 27.432 11.3567Z" stroke="#FECE00" stroke-width="0.5"/>
<path d="M25.017 12.8502L25.8176 14.0541C25.7417 14.1045 25.6659 14.1553 25.5902 14.2063L24.7818 13.0077C24.8601 12.9549 24.9385 12.9024 25.017 12.8502Z" stroke="#FECE00" stroke-width="0.5"/>
<path d="M22.7075 14.4977L23.5852 15.6465C23.5126 15.702 23.4402 15.7577 23.3678 15.8137L22.4826 14.6707C22.5574 14.6127 22.6324 14.5551 22.7075 14.4977Z" stroke="#FECE00" stroke-width="0.5"/>
<path d="M20.5094 16.2936C20.438 16.3559 20.3667 16.4185 20.2956 16.4814L21.2534 17.5644C21.3222 17.5036 21.3911 17.4431 21.4601 17.3828L20.5094 16.2936Z" stroke="#FECE00" stroke-width="0.5"/>
<path d="M18.4321 18.2282L18.2276 18.4327L20.6812 20.8862L20.8857 20.6818L18.4321 18.2282Z" stroke="#FECE00" stroke-width="0.5"/>
<path d="M16.4808 20.2962L17.5638 21.2539C17.503 21.3227 17.4425 21.3916 17.3822 21.4606L16.293 20.5099C16.3553 20.4385 16.4179 20.3673 16.4808 20.2962Z" stroke="#FECE00" stroke-width="0.5"/>
<path d="M14.67 22.483L15.8131 23.3683C15.7571 23.4406 15.7013 23.5131 15.6459 23.5857L14.497 22.708C14.5544 22.6328 14.6121 22.5579 14.67 22.483Z" stroke="#FECE00" stroke-width="0.5"/>
<path d="M13.007 24.7822L14.2056 25.5906C14.1546 25.6663 14.1039 25.7421 14.0534 25.818L12.8494 25.0174C12.9017 24.9389 12.9542 24.8605 13.007 24.7822Z" stroke="#FECE00" stroke-width="0.5"/>
<path d="M11.3651 27.4376L11.3646 27.4386L14.3696 29.1735L14.5142 28.9231L11.5091 27.1882L11.5073 27.1913L11.4983 27.1861C11.4506 27.268 11.4031 27.3501 11.3559 27.4323L11.3651 27.4376Z" stroke="#FECE00" stroke-width="0.5"/>
<path d="M10.1507 29.6852L11.4453 30.3291C11.4046 30.411 11.3641 30.493 11.3239 30.5751L10.0252 29.9398C10.0667 29.8549 10.1086 29.77 10.1507 29.6852Z" stroke="#FECE00" stroke-width="0.5"/>
<path d="M8.97138 32.2666L10.3055 32.8238C10.2703 32.9081 10.2354 32.9924 10.2008 33.0769L8.86301 32.5286C8.89883 32.4412 8.93496 32.3539 8.97138 32.2666Z" stroke="#FECE00" stroke-width="0.5"/>
<path d="M7.96441 34.9203L9.33231 35.3885C9.30265 35.4751 9.27328 35.5619 9.24421 35.6487L7.87327 35.1895C7.90335 35.0997 7.93373 35.0099 7.96441 34.9203Z" stroke="#FECE00" stroke-width="0.5"/>
<path d="M7.13371 37.635L7.14059 37.6368L7.14123 37.6344L10.4929 38.5325L10.4181 38.8118L7.06639 37.9137L7.06713 37.911L7.0605 37.9092C7.0846 37.8177 7.109 37.7263 7.13371 37.635Z" stroke="#FECE00" stroke-width="0.5"/>
<path d="M6.48274 40.3975L7.90009 40.683C7.88204 40.7726 7.86429 40.8623 7.84683 40.952L6.42764 40.6758C6.4457 40.583 6.46407 40.4903 6.48274 40.3975Z" stroke="#FECE00" stroke-width="0.5"/>
<path d="M6.0135 43.1971L7.44645 43.3894C7.43427 43.4801 7.42239 43.5709 7.4108 43.6617L5.97663 43.4786C5.98861 43.3848 6.0009 43.2909 6.0135 43.1971Z" stroke="#FECE00" stroke-width="0.5"/>
<path d="M5.72764 46.0212L7.17007 46.1199C7.16383 46.2112 7.15788 46.3025 7.15223 46.3938L5.70918 46.3045C5.71503 46.2101 5.72118 46.1157 5.72764 46.0212Z" stroke="#FECE00" stroke-width="0.5"/>
<path d="M7.15223 51.6059C7.15788 51.6972 7.16383 51.7885 7.17007 51.8798L5.72764 51.9785C5.72118 51.8841 5.71503 51.7897 5.70919 51.6952L7.15223 51.6059Z" stroke="#FECE00" stroke-width="0.5"/>
<path d="M7.4108 54.3381C7.42239 54.4289 7.43427 54.5196 7.44645 54.6103L6.0135 54.8027C6.0009 54.7089 5.98861 54.615 5.97663 54.5211L7.4108 54.3381Z" stroke="#FECE00" stroke-width="0.5"/>
<path d="M7.84683 57.0478C7.86429 57.1375 7.88204 57.2272 7.90009 57.3168L6.48274 57.6022C6.46407 57.5095 6.4457 57.4167 6.42764 57.3239L7.84683 57.0478Z" stroke="#FECE00" stroke-width="0.5"/>
<path d="M7.06712 60.0888L7.06638 60.086L10.4181 59.188L10.4929 59.4673L7.14122 60.3653L7.14057 60.3629L7.13371 60.3648C7.109 60.2734 7.0846 60.182 7.06049 60.0905L7.06712 60.0888Z" stroke="#FECE00" stroke-width="0.5"/>
<path d="M16.293 77.4898C16.3553 77.5612 16.4179 77.6325 16.4808 77.7036L17.5638 76.7458C17.503 76.677 17.4425 76.6081 17.3822 76.5391L16.293 77.4898Z" stroke="#FECE00" stroke-width="0.5"/>
<path d="M18.3299 79.6693L18.2276 79.5671L20.6812 77.1135L20.8857 77.318L18.4321 79.7715L18.3838 79.7232C18.3658 79.7052 18.3478 79.6873 18.3299 79.6693Z" stroke="#FECE00" stroke-width="0.5"/>
<path d="M20.2956 81.5183L21.2534 80.4353C21.3222 80.4961 21.3911 80.5566 21.4601 80.6169L20.5094 81.7061C20.438 81.6438 20.3667 81.5812 20.2956 81.5183Z" stroke="#FECE00" stroke-width="0.5"/>
<path d="M22.4826 83.3291L23.3678 82.186C23.4401 82.242 23.5126 82.2978 23.5852 82.3532L22.7075 83.5021C22.6323 83.4447 22.5574 83.387 22.4826 83.3291Z" stroke="#FECE00" stroke-width="0.5"/>
<path d="M24.7818 84.9921L25.5902 83.7934C25.6659 83.8444 25.7416 83.8952 25.8175 83.9457L25.017 85.1496C24.9385 85.0974 24.86 85.0448 24.7818 84.9921Z" stroke="#FECE00" stroke-width="0.5"/>
<path d="M27.1857 86.5007L27.1909 86.4917L27.1877 86.4899L28.9226 83.4849L29.1731 83.6295L27.4381 86.6344L27.4372 86.6339L27.4319 86.643C27.3497 86.5959 27.2676 86.5484 27.1857 86.5007Z" stroke="#FECE00" stroke-width="0.5"/>
<path d="M29.6849 87.8482L30.3287 86.5537C30.4107 86.5944 30.4927 86.6349 30.5748 86.6751L29.9395 87.9738C29.8545 87.9322 29.7697 87.8904 29.6849 87.8482Z" stroke="#FECE00" stroke-width="0.5"/>
<path d="M32.2664 89.0275L32.8235 87.6934C32.9078 87.7286 32.9922 87.7635 33.0767 87.7982L32.5283 89.1359C32.4409 89.1001 32.3536 89.064 32.2664 89.0275Z" stroke="#FECE00" stroke-width="0.5"/>
<path d="M34.9201 90.0345L35.3883 88.6666C35.4749 88.6963 35.5617 88.7256 35.6485 88.7547L35.1893 90.1256C35.0995 90.0956 35.0097 90.0652 34.9201 90.0345Z" stroke="#FECE00" stroke-width="0.5"/>
<path d="M37.9108 90.9318L37.9136 90.9325L38.8117 87.5809L38.5324 87.5061L37.6343 90.8577L37.6367 90.8583L37.6348 90.8652C37.7262 90.8899 37.8176 90.9143 37.9091 90.9384L37.9108 90.9318Z" stroke="#FECE00" stroke-width="0.5"/>
<path d="M40.3975 91.5161L40.6829 90.0988C40.7725 90.1169 40.8622 90.1346 40.9519 90.1521L40.6758 91.5712C40.583 91.5532 40.4902 91.5348 40.3975 91.5161Z" stroke="#FECE00" stroke-width="0.5"/>
<path d="M43.1971 91.9854L43.3894 90.5525C43.4801 90.5646 43.5709 90.5765 43.6617 90.5881L43.4786 92.0222C43.3848 92.0102 43.2909 91.998 43.1971 91.9854Z" stroke="#FECE00" stroke-width="0.5"/>
<path d="M46.0213 92.2712L46.12 90.8288C46.2113 90.8351 46.3026 90.841 46.3939 90.8467L46.3046 92.2897C46.2102 92.2838 46.1157 92.2777 46.0213 92.2712Z" stroke="#FECE00" stroke-width="0.5"/>
<path d="M51.9787 92.2712C51.8843 92.2777 51.7899 92.2838 51.6954 92.2897L51.6061 90.8467C51.6974 90.841 51.7887 90.8351 51.88 90.8288L51.9787 92.2712Z" stroke="#FECE00" stroke-width="0.5"/>
<path d="M54.5214 92.0222C54.5873 92.0138 54.6531 92.0052 54.719 91.9965C54.747 91.9928 54.775 91.9891 54.803 91.9854L54.6106 90.5525C54.5199 90.5646 54.4291 90.5765 54.3383 90.5881L54.5214 92.0222Z" stroke="#FECE00" stroke-width="0.5"/>
<path d="M57.3242 91.5712L57.0481 90.1521C57.1378 90.1346 57.2275 90.1169 57.3171 90.0988L57.6025 91.5161C57.5759 91.5215 57.5493 91.5268 57.5226 91.5322L57.4783 91.541C57.4539 91.5458 57.4295 91.5506 57.4051 91.5554L57.3242 91.5712Z" stroke="#FECE00" stroke-width="0.5"/>
<path d="M60.3633 90.8583L60.3657 90.8577L59.4676 87.5061L59.1883 87.5809L60.0864 90.9325L60.0892 90.9318L60.0909 90.9384C60.1824 90.9143 60.2738 90.8899 60.3652 90.8652L60.3633 90.8583Z" stroke="#FECE00" stroke-width="0.5"/>
<path d="M62.8107 90.1256L62.3515 88.7547C62.4383 88.7257 62.5251 88.6963 62.6117 88.6666L63.0799 90.0345C62.9903 90.0652 62.9005 90.0956 62.8107 90.1256Z" stroke="#FECE00" stroke-width="0.5"/>
<path d="M65.4717 89.1359L64.9233 87.7982C65.0078 87.7635 65.0922 87.7286 65.1765 87.6934L65.7336 89.0276C65.684 89.0483 65.6344 89.0689 65.5848 89.0894C65.5604 89.0994 65.5361 89.1095 65.5117 89.1195L65.4717 89.1359Z" stroke="#FECE00" stroke-width="0.5"/>
<path d="M68.0605 87.9738C68.1455 87.9322 68.2303 87.8904 68.3151 87.8482L67.6713 86.5537L67.6328 86.5728C67.6098 86.5842 67.5869 86.5956 67.564 86.6069C67.5177 86.6297 67.4715 86.6524 67.4252 86.6751L68.0605 87.9738Z" stroke="#FECE00" stroke-width="0.5"/>
<path d="M70.568 86.6431C70.6503 86.5959 70.7324 86.5484 70.8143 86.5007L70.8091 86.4917L70.8123 86.4898L69.0773 83.4848L68.8269 83.6294L70.5619 86.6344L70.5628 86.6338L70.568 86.6431Z" stroke="#FECE00" stroke-width="0.5"/>
<path d="M72.983 85.1496L72.1825 83.9457C72.2584 83.8952 72.3341 83.8445 72.4098 83.7934L73.2182 84.9921L73.1489 85.0387L73.112 85.0635C73.0691 85.0922 73.0261 85.121 72.983 85.1496Z" stroke="#FECE00" stroke-width="0.5"/>
<path d="M75.2925 83.5021L74.4148 82.3532L74.4449 82.3302C74.4701 82.3109 74.4954 82.2915 74.5206 82.2721C74.5578 82.2435 74.595 82.2148 74.6322 82.186L75.5174 83.3291C75.4426 83.387 75.3677 83.4447 75.2925 83.5021Z" stroke="#FECE00" stroke-width="0.5"/>
<path d="M77.4906 81.7061C77.562 81.6438 77.6333 81.5812 77.7044 81.5183L76.7466 80.4353C76.6778 80.4961 76.6089 80.5567 76.5399 80.6169L77.4906 81.7061Z" stroke="#FECE00" stroke-width="0.5"/>
<path d="M79.5679 79.7715L77.1143 77.318L77.3188 77.1135L79.7724 79.5671L79.5679 79.7715Z" stroke="#FECE00" stroke-width="0.5"/>
<path d="M81.5192 77.7036L80.4362 76.7458C80.4871 76.6882 80.5378 76.6305 80.5884 76.5728L80.6178 76.5391L81.707 77.4898C81.6447 77.5612 81.5821 77.6325 81.5192 77.7036Z" stroke="#FECE00" stroke-width="0.5"/>
<path d="M90.9329 60.0888L90.9336 60.086L87.5819 59.188L87.5071 59.4673L90.8588 60.3653L90.8594 60.3629L90.8663 60.3648C90.891 60.2734 90.9154 60.182 90.9395 60.0905L90.9329 60.0888Z" stroke="#FECE00" stroke-width="0.5"/>
<path d="M91.5724 57.3239C91.5543 57.4167 91.5359 57.5095 91.5173 57.6022L90.0999 57.3168C90.118 57.2272 90.1357 57.1375 90.1532 57.0478L91.5724 57.3239Z" stroke="#FECE00" stroke-width="0.5"/>
<path d="M92.0073 54.6455C92.0005 54.6979 91.9935 54.7503 91.9865 54.8027L90.5536 54.6103C90.5657 54.5196 90.5776 54.4289 90.5892 54.3381L92.0234 54.5211C92.0181 54.5626 92.0127 54.6041 92.0073 54.6455Z" stroke="#FECE00" stroke-width="0.5"/>
<path d="M92.2908 51.6952C92.285 51.7897 92.2788 51.8841 92.2724 51.9785L90.8299 51.8798C90.8362 51.7885 90.8421 51.6972 90.8478 51.6059L92.2908 51.6952Z" stroke="#FECE00" stroke-width="0.5"/>
<path d="M92.2908 46.3045L90.8478 46.3938C90.8421 46.3025 90.8362 46.2112 90.8299 46.1199L92.2724 46.0212C92.2788 46.1157 92.285 46.2101 92.2908 46.3045Z" stroke="#FECE00" stroke-width="0.5"/>
<path d="M92.0234 43.4786L90.5892 43.6617C90.5776 43.5709 90.5657 43.4801 90.5536 43.3894L91.9865 43.1971C91.9991 43.2909 92.0114 43.3847 92.0234 43.4786Z" stroke="#FECE00" stroke-width="0.5"/>
<path d="M91.5724 40.6758L90.1532 40.952C90.1357 40.8623 90.118 40.7726 90.0999 40.683L91.5173 40.3976C91.5359 40.4903 91.5543 40.583 91.5724 40.6758Z" stroke="#FECE00" stroke-width="0.5"/>
<path d="M90.9395 37.9092C90.9293 37.8706 90.9191 37.832 90.9088 37.7934C90.9031 37.7719 90.8973 37.7503 90.8916 37.7288L90.8786 37.6807L90.8663 37.635L90.8594 37.6368L90.8588 37.6344L87.5071 38.5325L87.5819 38.8118L90.9336 37.9137L90.9329 37.911L90.9395 37.9092Z" stroke="#FECE00" stroke-width="0.5"/>
<path d="M90.1267 35.1895L88.7558 35.6487C88.74 35.6014 88.7241 35.5542 88.7081 35.5069C88.6947 35.4674 88.6812 35.428 88.6677 35.3885L90.0356 34.9203C90.0663 35.0099 90.0967 35.0997 90.1267 35.1895Z" stroke="#FECE00" stroke-width="0.5"/>
<path d="M89.137 32.5286L87.7992 33.0769C87.7646 32.9925 87.7297 32.9081 87.6945 32.8238L89.0286 32.2667C89.0514 32.3212 89.074 32.3757 89.0966 32.4303L89.1102 32.4634L89.137 32.5286Z" stroke="#FECE00" stroke-width="0.5"/>
<path d="M87.9748 29.9399C87.9333 29.8549 87.8914 29.77 87.8493 29.6853L86.5547 30.3291C86.5955 30.411 86.6359 30.493 86.6761 30.5751L87.9748 29.9399Z" stroke="#FECE00" stroke-width="0.5"/>
<path d="M86.4927 27.1913L86.4908 27.1881L83.4858 28.923L83.6303 29.1735L86.6354 27.4385L86.6349 27.4376L86.6441 27.4323C86.5969 27.3501 86.5495 27.268 86.5017 27.1861L86.4927 27.1913Z" stroke="#FECE00" stroke-width="0.5"/>
<path d="M85.1506 25.0174L83.9466 25.818C83.8962 25.7421 83.8454 25.6663 83.7944 25.5906L84.993 24.7822C85.0458 24.8605 85.0984 24.9389 85.1506 25.0174Z" stroke="#FECE00" stroke-width="0.5"/>
<path d="M83.503 22.708L82.3542 23.5857C82.2987 23.5131 82.243 23.4406 82.1869 23.3683L83.33 22.4831C83.388 22.5579 83.4456 22.6329 83.503 22.708Z" stroke="#FECE00" stroke-width="0.5"/>
<path d="M81.707 20.5099C81.6447 20.4385 81.5821 20.3673 81.5192 20.2962L80.4362 21.254C80.497 21.3227 80.5575 21.3916 80.6178 21.4607L81.707 20.5099Z" stroke="#FECE00" stroke-width="0.5"/>
<path d="M49.1447 88.9037V97H48.8555L48.8554 88.9031H49.1446L49.1447 88.9037Z" stroke="#FECE00" stroke-width="0.5"/>
<path d="M1 49.1445V48.8553L9.0958 48.8553L9.09586 49.1445H1Z" stroke="#FECE00" stroke-width="0.5"/>
<path d="M88.9042 48.8553L88.9042 49.1445H97V48.8553L88.9042 48.8553Z" stroke="#FECE00" stroke-width="0.5"/>
<path fill-rule="evenodd" clip-rule="evenodd" d="M57.6765 28.0029V47.5527L63.6189 54.6428H75.4097L81.4999 47.5715V28.0029H57.6765ZM62.6136 45.7573V32.9401H76.5627V45.7385L73.146 49.7057H65.9228L62.6136 45.7573Z" fill="white"/>
<path d="M65.9934 56.4277V61.3648H81.1811L84.8214 64.7536V70.256H69.7452V75.1931H89.7586V62.6043L83.1234 56.4277H65.9934Z" fill="white"/>
<path d="M32.4483 56.4277H15.3184L8.68323 62.6043V75.1931H28.6966V70.256H13.6204V64.7536L17.2607 61.3648H32.4483V56.4277Z" fill="white"/>
<path fill-rule="evenodd" clip-rule="evenodd" d="M40.7653 28.0029V47.5527L34.8229 54.6428H23.0321L16.9419 47.5715V28.0029H40.7653ZM35.8282 45.7573V32.9401H21.879V45.7385L25.2958 49.7057H32.5189L35.8282 45.7573Z" fill="white"/>
<path fill-rule="evenodd" clip-rule="evenodd" d="M35.8288 21.7041V43.6851L42.6275 51.5792H55.8154L62.6142 43.6851V21.7041H35.8288ZM40.7659 41.8521V26.6412H57.677V41.8521L53.5517 46.642H44.8912L40.7659 41.8521Z" fill="#FECE00"/>
<path fill-rule="evenodd" clip-rule="evenodd" d="M33.8919 54.3661L26.3391 61.239V78.8343H72.1038V61.2557L64.7028 54.3661H33.8919ZM31.2763 63.4216L35.802 59.3032H62.7605L67.1667 63.405V73.8971H31.2763V63.4216Z" fill="#FECE00"/>
</svg>
