<svg width="96" height="96" viewBox="0 0 96 96" fill="none" xmlns="http://www.w3.org/2000/svg">
<path d="M48.1441 8.71634H47.857L47.8571 0.676758H48.1442L48.1441 8.71634Z" fill="#FECE00"/>
<path d="M56.5424 6.12174L56.259 7.52906C56.17 7.51114 56.081 7.49351 55.9919 7.47618L56.2661 6.06703C56.3583 6.08496 56.4504 6.1032 56.5424 6.12174Z" fill="#FECE00"/>
<path d="M53.7626 5.65581L53.5716 7.07863C53.4815 7.06654 53.3914 7.05474 53.3012 7.04324L53.483 5.6192C53.5762 5.6311 53.6694 5.6433 53.7626 5.65581Z" fill="#FECE00"/>
<path d="M50.9582 5.37197L50.8602 6.80421C50.7696 6.79801 50.6789 6.7921 50.5883 6.78649L50.6769 5.35365C50.7707 5.35945 50.8645 5.36556 50.9582 5.37197Z" fill="#FECE00"/>
<path d="M45.3241 5.35365L45.4128 6.78649C45.3221 6.7921 45.2314 6.79801 45.1408 6.80421L45.0428 5.37198C45.1366 5.36556 45.2303 5.35945 45.3241 5.35365Z" fill="#FECE00"/>
<path d="M42.5181 5.6192L42.6998 7.04324C42.6097 7.05474 42.5195 7.06654 42.4295 7.07863L42.2385 5.65581C42.3316 5.6433 42.4248 5.6311 42.5181 5.6192Z" fill="#FECE00"/>
<path d="M39.7349 6.06703L40.0092 7.47618C39.9201 7.49351 39.831 7.51114 39.742 7.52906L39.4586 6.12173C39.5507 6.10319 39.6428 6.08496 39.7349 6.06703Z" fill="#FECE00"/>
<path d="M36.9878 6.6954L36.9895 6.70199L36.9922 6.70126L37.884 10.0293L37.6067 10.1036L36.7149 6.77557L36.7173 6.77493L36.7154 6.7681C36.8061 6.74357 36.8969 6.71933 36.9878 6.6954Z" fill="#FECE00"/>
<path d="M34.2871 7.50243L34.7431 8.86368C34.6569 8.89254 34.5708 8.9217 34.4847 8.95115L34.0198 7.59293C34.1088 7.56246 34.1979 7.53229 34.2871 7.50243Z" fill="#FECE00"/>
<path d="M31.6449 8.48517L32.1894 9.81349C32.1055 9.84787 32.0217 9.88254 31.938 9.91749L31.3848 8.59278C31.4714 8.55661 31.5581 8.52074 31.6449 8.48517Z" fill="#FECE00"/>
<path d="M29.0744 9.63911L29.7051 10.9287C29.6236 10.9686 29.5422 11.0087 29.4608 11.0492L28.8216 9.7638C28.9057 9.72194 28.99 9.68038 29.0744 9.63911Z" fill="#FECE00"/>
<path d="M26.5845 10.9605L26.5897 10.9696L26.5906 10.9691L28.3133 13.9529L28.0647 14.0965L26.3419 11.1127L26.3451 11.1108L26.3399 11.1018C26.4213 11.0544 26.5028 11.0073 26.5845 10.9605Z" fill="#FECE00"/>
<path d="M24.1865 12.4434L24.9814 13.6388C24.9061 13.689 24.8308 13.7393 24.7557 13.79L23.953 12.5998C24.0307 12.5474 24.1085 12.4953 24.1865 12.4434Z" fill="#FECE00"/>
<path d="M21.8933 14.0793L22.7648 15.2201C22.6927 15.2751 22.6208 15.3305 22.549 15.3861L21.6699 14.2511C21.7442 14.1936 21.8187 14.1363 21.8933 14.0793Z" fill="#FECE00"/>
<path d="M19.7107 15.8626C19.6398 15.9245 19.569 15.9867 19.4984 16.0491L20.4495 17.1245C20.5177 17.0641 20.5861 17.004 20.6547 16.9441L19.7107 15.8626Z" fill="#FECE00"/>
<path d="M17.648 17.7836L17.445 17.9866L19.8813 20.4229L20.0843 20.2199L17.648 17.7836Z" fill="#FECE00"/>
<path d="M15.7105 19.8369L16.7859 20.788C16.7255 20.8562 16.6654 20.9247 16.6055 20.9932L15.524 20.0492C15.5859 19.9783 15.648 19.9075 15.7105 19.8369Z" fill="#FECE00"/>
<path d="M13.9124 22.0084L15.0475 22.8874C14.9918 22.9593 14.9365 23.0312 14.8814 23.1033L13.7406 22.2317C13.7976 22.1572 13.8549 22.0827 13.9124 22.0084Z" fill="#FECE00"/>
<path d="M12.2611 24.2914L13.4513 25.0941C13.4007 25.1692 13.3503 25.2445 13.3001 25.3198L12.1047 24.525C12.1565 24.447 12.2087 24.3691 12.2611 24.2914Z" fill="#FECE00"/>
<path d="M10.6308 26.9281L10.6303 26.929L13.6141 28.6517L13.7577 28.4031L10.7738 26.6804L10.772 26.6835L10.7631 26.6783C10.7157 26.7597 10.6686 26.8412 10.6217 26.9228L10.6308 26.9281Z" fill="#FECE00"/>
<path d="M9.42501 29.1599L10.7104 29.7991C10.67 29.8805 10.6298 29.9619 10.5899 30.0435L9.30032 29.4127C9.34159 29.3283 9.38315 29.244 9.42501 29.1599Z" fill="#FECE00"/>
<path d="M8.25395 31.7231L9.5787 32.2763C9.54375 32.36 9.50908 32.4438 9.4747 32.5277L8.14634 31.9832C8.18192 31.8964 8.21779 31.8097 8.25395 31.7231Z" fill="#FECE00"/>
<path d="M7.25408 34.358L8.61234 34.8229C8.58289 34.909 8.55373 34.9951 8.52486 35.0813L7.16358 34.6253C7.19345 34.5361 7.22362 34.447 7.25408 34.358Z" fill="#FECE00"/>
<path d="M6.42924 37.0536L6.43607 37.0554L6.4367 37.0531L9.76478 37.9448L9.69047 38.2221L6.36239 37.3304L6.36313 37.3276L6.35654 37.3259C6.38047 37.2351 6.4047 37.1443 6.42924 37.0536Z" fill="#FECE00"/>
<path d="M5.78285 39.7967L7.19021 40.0801C7.17229 40.1691 7.15466 40.2581 7.13733 40.3472L5.72814 40.073C5.74607 39.9809 5.76431 39.8888 5.78285 39.7967Z" fill="#FECE00"/>
<path d="M5.31691 42.5765L6.73977 42.7675C6.72768 42.8576 6.71588 42.9477 6.70437 43.0378L5.28031 42.8561C5.2922 42.7629 5.30441 42.6696 5.31691 42.5765Z" fill="#FECE00"/>
<path d="M5.03307 45.3808L6.46534 45.4788C6.45914 45.5694 6.45323 45.6601 6.44762 45.7507L5.01475 45.6621C5.02055 45.5683 5.02666 45.4745 5.03307 45.3808Z" fill="#FECE00"/>
<path d="M6.44762 50.9261C6.45323 51.0168 6.45914 51.1074 6.46534 51.1981L5.03307 51.296C5.02666 51.2023 5.02055 51.1085 5.01475 51.0148L6.44762 50.9261Z" fill="#FECE00"/>
<path d="M6.70437 53.639C6.71588 53.7291 6.72768 53.8192 6.73977 53.9093L5.31691 54.1003C5.30441 54.0072 5.2922 53.914 5.28031 53.8207L6.70437 53.639Z" fill="#FECE00"/>
<path d="M7.13733 56.3296C7.15466 56.4187 7.17229 56.5077 7.19021 56.5967L5.78285 56.8801C5.76431 56.788 5.74607 56.6959 5.72814 56.6038L7.13733 56.3296Z" fill="#FECE00"/>
<path d="M6.36311 59.3492L6.36238 59.3464L9.69045 58.4547L9.76477 58.732L6.43669 59.6238L6.43605 59.6214L6.42923 59.6232C6.4047 59.5325 6.38047 59.4417 6.35653 59.3509L6.36311 59.3492Z" fill="#FECE00"/>
<path d="M8.52486 61.5955C8.55373 61.6817 8.58289 61.7678 8.61233 61.8539L7.25408 62.3188C7.22361 62.2298 7.19344 62.1407 7.16357 62.0515L8.52486 61.5955Z" fill="#FECE00"/>
<path d="M8.14634 64.6936C8.18191 64.7804 8.21779 64.8671 8.25395 64.9537L9.57869 64.4005C9.54374 64.3168 9.50908 64.233 9.4747 64.1491L8.14634 64.6936Z" fill="#FECE00"/>
<path d="M9.30031 67.2641L10.5899 66.6333C10.6298 66.7149 10.67 66.7963 10.7104 66.8776L9.425 67.5169C9.38315 67.4328 9.34158 67.3485 9.30031 67.2641Z" fill="#FECE00"/>
<path d="M10.6217 69.754L10.6308 69.7487L10.6303 69.7478L13.6142 68.0251L13.7577 68.2738L10.7739 69.9965L10.772 69.9933L10.7631 69.9985C10.7157 69.9171 10.6685 69.8356 10.6217 69.754Z" fill="#FECE00"/>
<path d="M12.1047 72.1518L13.3001 71.3569C13.3503 71.4323 13.4006 71.5076 13.4513 71.5827L12.2611 72.3854C12.2087 72.3077 12.1565 72.2298 12.1047 72.1518Z" fill="#FECE00"/>
<path d="M13.7406 74.445L14.8814 73.5735C14.9365 73.6456 14.9918 73.7175 15.0474 73.7894L13.9124 74.6684C13.8549 74.5941 13.7976 74.5196 13.7406 74.445Z" fill="#FECE00"/>
<path d="M15.524 76.6276C15.5858 76.6985 15.648 76.7692 15.7104 76.8399L16.7859 75.8888C16.7255 75.8205 16.6654 75.7521 16.6055 75.6835L15.524 76.6276Z" fill="#FECE00"/>
<path d="M28.8215 86.913L29.4608 85.6276C29.5422 85.6681 29.6236 85.7082 29.7051 85.7481L29.0743 87.0377C28.99 86.9964 28.9057 86.9549 28.8215 86.913Z" fill="#FECE00"/>
<path d="M31.3848 88.084L31.938 86.7593C32.0217 86.7943 32.1055 86.8289 32.1894 86.8633L31.6449 88.1916C31.5581 88.1561 31.4714 88.1202 31.3848 88.084Z" fill="#FECE00"/>
<path d="M76.2904 80.8142C76.3613 80.7523 76.432 80.6901 76.5026 80.6277L75.5516 79.5523C75.4833 79.6127 75.4149 79.6728 75.3463 79.7327L76.2904 80.8142Z" fill="#FECE00"/>
<path d="M78.3531 78.8932L75.9167 76.457L76.1198 76.2539L78.5561 78.6902L78.3531 78.8932Z" fill="#FECE00"/>
<path d="M80.2906 76.8399L79.2152 75.8888C79.2657 75.8316 79.3161 75.7744 79.3663 75.717L79.3955 75.6836L80.4771 76.6276C80.4152 76.6985 80.353 76.7693 80.2906 76.8399Z" fill="#FECE00"/>
<path d="M82.0886 74.6684L80.9536 73.7894C81.0092 73.7176 81.0646 73.6456 81.1196 73.5735L82.2604 74.4451C82.2034 74.5196 82.1462 74.5941 82.0886 74.6684Z" fill="#FECE00"/>
<path d="M83.7399 72.3854L82.5497 71.5827C82.6004 71.5076 82.6508 71.4323 82.7009 71.357L83.8963 72.1519C83.8445 72.2298 83.7924 72.3077 83.7399 72.3854Z" fill="#FECE00"/>
<path d="M85.2379 69.9985L85.229 69.9933L85.2271 69.9965L82.2432 68.2738L82.3868 68.0252L85.3707 69.7479L85.3702 69.7487L85.3793 69.754C85.3325 69.8356 85.2854 69.9171 85.2379 69.9985Z" fill="#FECE00"/>
<path d="M86.576 67.5169L85.2906 66.8777C85.3311 66.7963 85.3712 66.7149 85.4111 66.6334L86.7007 67.2641C86.6595 67.3485 86.6179 67.4328 86.576 67.5169Z" fill="#FECE00"/>
<path d="M87.7471 64.9537L86.4223 64.4005C86.4573 64.3168 86.492 64.233 86.5263 64.1492L87.8547 64.6936C87.8191 64.7804 87.7832 64.8671 87.7471 64.9537Z" fill="#FECE00"/>
<path d="M88.7469 62.3188L87.3887 61.8539C87.4181 61.7678 87.4473 61.6817 87.4762 61.5955L88.8375 62.0515C88.8076 62.1407 88.7774 62.2298 88.7469 62.3188Z" fill="#FECE00"/>
<path d="M89.6379 59.3492L89.6387 59.3464L86.3106 58.4547L86.2363 58.732L89.5643 59.6238L89.565 59.6214L89.5718 59.6232C89.5963 59.5325 89.6206 59.4417 89.6445 59.3509L89.6379 59.3492Z" fill="#FECE00"/>
<path d="M90.2729 56.6038C90.255 56.6959 90.2367 56.7881 90.2182 56.8801L88.8108 56.5967C88.8287 56.5077 88.8464 56.4187 88.8637 56.3296L90.2729 56.6038Z" fill="#FECE00"/>
<path d="M90.7048 53.9443C90.698 53.9963 90.6911 54.0483 90.6841 54.1003L89.2613 53.9093C89.2734 53.8192 89.2852 53.7291 89.2967 53.639L90.7207 53.8207C90.7155 53.8619 90.7102 53.9031 90.7048 53.9443Z" fill="#FECE00"/>
<path d="M90.9863 51.0147C90.9805 51.1085 90.9744 51.2023 90.968 51.296L89.5357 51.198C89.5419 51.1074 89.5478 51.0168 89.5534 50.9261L90.9863 51.0147Z" fill="#FECE00"/>
<path d="M90.9863 45.662L89.5534 45.7507C89.5478 45.66 89.5419 45.5694 89.5357 45.4788L90.968 45.3808C90.9744 45.4745 90.9805 45.5683 90.9863 45.662Z" fill="#FECE00"/>
<path d="M90.7207 42.8561L89.2967 43.0378C89.2852 42.9477 89.2734 42.8576 89.2613 42.7675L90.6841 42.5765C90.6966 42.6697 90.7088 42.7628 90.7207 42.8561Z" fill="#FECE00"/>
<path d="M90.2729 40.073L88.8637 40.3472C88.8464 40.2581 88.8287 40.1691 88.8108 40.0801L90.2182 39.7967C90.2367 39.8888 90.255 39.9809 90.2729 40.073Z" fill="#FECE00"/>
<path d="M89.6445 37.3259C89.6344 37.2876 89.6243 37.2493 89.614 37.2109C89.6083 37.1895 89.6026 37.1681 89.5969 37.1467L89.584 37.099L89.5718 37.0536L89.565 37.0554L89.5643 37.0531L86.2363 37.9448L86.3106 38.2221L89.6386 37.3304L89.6379 37.3277L89.6445 37.3259Z" fill="#FECE00"/>
<path d="M88.8375 34.6253L87.4762 35.0813C87.4605 35.0343 87.4447 34.9874 87.4288 34.9406C87.4155 34.9013 87.4021 34.8621 87.3887 34.8229L88.747 34.358C88.7774 34.4471 88.8076 34.5361 88.8375 34.6253Z" fill="#FECE00"/>
<path d="M87.8547 31.9832L86.5263 32.5277C86.492 32.4438 86.4573 32.36 86.4223 32.2763L87.7471 31.7231C87.7697 31.7772 87.7922 31.8314 87.8146 31.8856L87.8281 31.9184L87.8547 31.9832Z" fill="#FECE00"/>
<path d="M86.7007 29.4127C86.6595 29.3283 86.6179 29.244 86.576 29.1599L85.2906 29.7992C85.3311 29.8805 85.3712 29.9619 85.4111 30.0435L86.7007 29.4127Z" fill="#FECE00"/>
<path d="M85.229 26.6835L85.2271 26.6803L82.2433 28.403L82.3868 28.6517L85.3707 26.929L85.3702 26.9281L85.3793 26.9228C85.3325 26.8412 85.2854 26.7597 85.238 26.6783L85.229 26.6835Z" fill="#FECE00"/>
<path d="M83.8964 24.525L82.7009 25.3199C82.6508 25.2445 82.6004 25.1692 82.5497 25.0941L83.7399 24.2914C83.7924 24.3691 83.8445 24.447 83.8964 24.525Z" fill="#FECE00"/>
<path d="M82.2604 22.2318L81.1197 23.1033C81.0646 23.0312 81.0092 22.9593 80.9536 22.8874L82.0886 22.0084C82.1462 22.0827 82.2034 22.1572 82.2604 22.2318Z" fill="#FECE00"/>
<path d="M80.4771 20.0492C80.4152 19.9783 80.353 19.9076 80.2906 19.837L79.2152 20.788C79.2756 20.8563 79.3357 20.9247 79.3955 20.9932L80.4771 20.0492Z" fill="#FECE00"/>
<path d="M0.338745 48.482V48.1949L8.37749 48.1949L8.37756 48.482H0.338745Z" fill="#FECE00"/>
<path d="M87.6235 48.1949L87.6235 48.482H95.6623V48.1949L87.6235 48.1949Z" fill="#FECE00"/>
<path d="M48.1441 8.71634H47.857L47.8571 0.676758H48.1442L48.1441 8.71634Z" stroke="#FECE00" stroke-width="0.5"/>
<path d="M56.5424 6.12174L56.259 7.52906C56.17 7.51114 56.081 7.49351 55.9919 7.47618L56.2661 6.06703C56.3583 6.08496 56.4504 6.1032 56.5424 6.12174Z" stroke="#FECE00" stroke-width="0.5"/>
<path d="M53.7626 5.65581L53.5716 7.07863C53.4815 7.06654 53.3914 7.05474 53.3012 7.04324L53.483 5.6192C53.5762 5.6311 53.6694 5.6433 53.7626 5.65581Z" stroke="#FECE00" stroke-width="0.5"/>
<path d="M50.9582 5.37197L50.8602 6.80421C50.7696 6.79801 50.6789 6.7921 50.5883 6.78649L50.6769 5.35365C50.7707 5.35945 50.8645 5.36556 50.9582 5.37197Z" stroke="#FECE00" stroke-width="0.5"/>
<path d="M45.3241 5.35365L45.4128 6.78649C45.3221 6.7921 45.2314 6.79801 45.1408 6.80421L45.0428 5.37198C45.1366 5.36556 45.2303 5.35945 45.3241 5.35365Z" stroke="#FECE00" stroke-width="0.5"/>
<path d="M42.5181 5.6192L42.6998 7.04324C42.6097 7.05474 42.5195 7.06654 42.4295 7.07863L42.2385 5.65581C42.3316 5.6433 42.4248 5.6311 42.5181 5.6192Z" stroke="#FECE00" stroke-width="0.5"/>
<path d="M39.7349 6.06703L40.0092 7.47618C39.9201 7.49351 39.831 7.51114 39.742 7.52906L39.4586 6.12173C39.5507 6.10319 39.6428 6.08496 39.7349 6.06703Z" stroke="#FECE00" stroke-width="0.5"/>
<path d="M36.9878 6.6954L36.9895 6.70199L36.9922 6.70126L37.884 10.0293L37.6067 10.1036L36.7149 6.77557L36.7173 6.77493L36.7154 6.7681C36.8061 6.74357 36.8969 6.71933 36.9878 6.6954Z" stroke="#FECE00" stroke-width="0.5"/>
<path d="M34.2871 7.50243L34.7431 8.86368C34.6569 8.89254 34.5708 8.9217 34.4847 8.95115L34.0198 7.59293C34.1088 7.56246 34.1979 7.53229 34.2871 7.50243Z" stroke="#FECE00" stroke-width="0.5"/>
<path d="M31.6449 8.48517L32.1894 9.81349C32.1055 9.84787 32.0217 9.88254 31.938 9.91749L31.3848 8.59278C31.4714 8.55661 31.5581 8.52074 31.6449 8.48517Z" stroke="#FECE00" stroke-width="0.5"/>
<path d="M29.0744 9.63911L29.7051 10.9287C29.6236 10.9686 29.5422 11.0087 29.4608 11.0492L28.8216 9.7638C28.9057 9.72194 28.99 9.68038 29.0744 9.63911Z" stroke="#FECE00" stroke-width="0.5"/>
<path d="M26.5845 10.9605L26.5897 10.9696L26.5906 10.9691L28.3133 13.9529L28.0647 14.0965L26.3419 11.1127L26.3451 11.1108L26.3399 11.1018C26.4213 11.0544 26.5028 11.0073 26.5845 10.9605Z" stroke="#FECE00" stroke-width="0.5"/>
<path d="M24.1865 12.4434L24.9814 13.6388C24.9061 13.689 24.8308 13.7393 24.7557 13.79L23.953 12.5998C24.0307 12.5474 24.1085 12.4953 24.1865 12.4434Z" stroke="#FECE00" stroke-width="0.5"/>
<path d="M21.8933 14.0793L22.7648 15.2201C22.6927 15.2751 22.6208 15.3305 22.549 15.3861L21.6699 14.2511C21.7442 14.1936 21.8187 14.1363 21.8933 14.0793Z" stroke="#FECE00" stroke-width="0.5"/>
<path d="M19.7107 15.8626C19.6398 15.9245 19.569 15.9867 19.4984 16.0491L20.4495 17.1245C20.5177 17.0641 20.5861 17.004 20.6547 16.9441L19.7107 15.8626Z" stroke="#FECE00" stroke-width="0.5"/>
<path d="M17.648 17.7836L17.445 17.9866L19.8813 20.4229L20.0843 20.2199L17.648 17.7836Z" stroke="#FECE00" stroke-width="0.5"/>
<path d="M15.7105 19.8369L16.7859 20.788C16.7255 20.8562 16.6654 20.9247 16.6055 20.9932L15.524 20.0492C15.5859 19.9783 15.648 19.9075 15.7105 19.8369Z" stroke="#FECE00" stroke-width="0.5"/>
<path d="M13.9124 22.0084L15.0475 22.8874C14.9918 22.9593 14.9365 23.0312 14.8814 23.1033L13.7406 22.2317C13.7976 22.1572 13.8549 22.0827 13.9124 22.0084Z" stroke="#FECE00" stroke-width="0.5"/>
<path d="M12.2611 24.2914L13.4513 25.0941C13.4007 25.1692 13.3503 25.2445 13.3001 25.3198L12.1047 24.525C12.1565 24.447 12.2087 24.3691 12.2611 24.2914Z" stroke="#FECE00" stroke-width="0.5"/>
<path d="M10.6308 26.9281L10.6303 26.929L13.6141 28.6517L13.7577 28.4031L10.7738 26.6804L10.772 26.6835L10.7631 26.6783C10.7157 26.7597 10.6686 26.8412 10.6217 26.9228L10.6308 26.9281Z" stroke="#FECE00" stroke-width="0.5"/>
<path d="M9.42501 29.1599L10.7104 29.7991C10.67 29.8805 10.6298 29.9619 10.5899 30.0435L9.30032 29.4127C9.34159 29.3283 9.38315 29.244 9.42501 29.1599Z" stroke="#FECE00" stroke-width="0.5"/>
<path d="M8.25395 31.7231L9.5787 32.2763C9.54375 32.36 9.50908 32.4438 9.4747 32.5277L8.14634 31.9832C8.18192 31.8964 8.21779 31.8097 8.25395 31.7231Z" stroke="#FECE00" stroke-width="0.5"/>
<path d="M7.25408 34.358L8.61234 34.8229C8.58289 34.909 8.55373 34.9951 8.52486 35.0813L7.16358 34.6253C7.19345 34.5361 7.22362 34.447 7.25408 34.358Z" stroke="#FECE00" stroke-width="0.5"/>
<path d="M6.42924 37.0536L6.43607 37.0554L6.4367 37.0531L9.76478 37.9448L9.69047 38.2221L6.36239 37.3304L6.36313 37.3276L6.35654 37.3259C6.38047 37.2351 6.4047 37.1443 6.42924 37.0536Z" stroke="#FECE00" stroke-width="0.5"/>
<path d="M5.78285 39.7967L7.19021 40.0801C7.17229 40.1691 7.15466 40.2581 7.13733 40.3472L5.72814 40.073C5.74607 39.9809 5.76431 39.8888 5.78285 39.7967Z" stroke="#FECE00" stroke-width="0.5"/>
<path d="M5.31691 42.5765L6.73977 42.7675C6.72768 42.8576 6.71588 42.9477 6.70437 43.0378L5.28031 42.8561C5.2922 42.7629 5.30441 42.6696 5.31691 42.5765Z" stroke="#FECE00" stroke-width="0.5"/>
<path d="M5.03307 45.3808L6.46534 45.4788C6.45914 45.5694 6.45323 45.6601 6.44762 45.7507L5.01475 45.6621C5.02055 45.5683 5.02666 45.4745 5.03307 45.3808Z" stroke="#FECE00" stroke-width="0.5"/>
<path d="M6.44762 50.9261C6.45323 51.0168 6.45914 51.1074 6.46534 51.1981L5.03307 51.296C5.02666 51.2023 5.02055 51.1085 5.01475 51.0148L6.44762 50.9261Z" stroke="#FECE00" stroke-width="0.5"/>
<path d="M6.70437 53.639C6.71588 53.7291 6.72768 53.8192 6.73977 53.9093L5.31691 54.1003C5.30441 54.0072 5.2922 53.914 5.28031 53.8207L6.70437 53.639Z" stroke="#FECE00" stroke-width="0.5"/>
<path d="M7.13733 56.3296C7.15466 56.4187 7.17229 56.5077 7.19021 56.5967L5.78285 56.8801C5.76431 56.788 5.74607 56.6959 5.72814 56.6038L7.13733 56.3296Z" stroke="#FECE00" stroke-width="0.5"/>
<path d="M6.36311 59.3492L6.36238 59.3464L9.69045 58.4547L9.76477 58.732L6.43669 59.6238L6.43605 59.6214L6.42923 59.6232C6.4047 59.5325 6.38047 59.4417 6.35653 59.3509L6.36311 59.3492Z" stroke="#FECE00" stroke-width="0.5"/>
<path d="M8.52486 61.5955C8.55373 61.6817 8.58289 61.7678 8.61233 61.8539L7.25408 62.3188C7.22361 62.2298 7.19344 62.1407 7.16357 62.0515L8.52486 61.5955Z" stroke="#FECE00" stroke-width="0.5"/>
<path d="M8.14634 64.6936C8.18191 64.7804 8.21779 64.8671 8.25395 64.9537L9.57869 64.4005C9.54374 64.3168 9.50908 64.233 9.4747 64.1491L8.14634 64.6936Z" stroke="#FECE00" stroke-width="0.5"/>
<path d="M9.30031 67.2641L10.5899 66.6333C10.6298 66.7149 10.67 66.7963 10.7104 66.8776L9.425 67.5169C9.38315 67.4328 9.34158 67.3485 9.30031 67.2641Z" stroke="#FECE00" stroke-width="0.5"/>
<path d="M10.6217 69.754L10.6308 69.7487L10.6303 69.7478L13.6142 68.0251L13.7577 68.2738L10.7739 69.9965L10.772 69.9933L10.7631 69.9985C10.7157 69.9171 10.6685 69.8356 10.6217 69.754Z" stroke="#FECE00" stroke-width="0.5"/>
<path d="M12.1047 72.1518L13.3001 71.3569C13.3503 71.4323 13.4006 71.5076 13.4513 71.5827L12.2611 72.3854C12.2087 72.3077 12.1565 72.2298 12.1047 72.1518Z" stroke="#FECE00" stroke-width="0.5"/>
<path d="M13.7406 74.445L14.8814 73.5735C14.9365 73.6456 14.9918 73.7175 15.0474 73.7894L13.9124 74.6684C13.8549 74.5941 13.7976 74.5196 13.7406 74.445Z" stroke="#FECE00" stroke-width="0.5"/>
<path d="M15.524 76.6276C15.5858 76.6985 15.648 76.7692 15.7104 76.8399L16.7859 75.8888C16.7255 75.8205 16.6654 75.7521 16.6055 75.6835L15.524 76.6276Z" stroke="#FECE00" stroke-width="0.5"/>
<path d="M28.8215 86.913L29.4608 85.6276C29.5422 85.6681 29.6236 85.7082 29.7051 85.7481L29.0743 87.0377C28.99 86.9964 28.9057 86.9549 28.8215 86.913Z" stroke="#FECE00" stroke-width="0.5"/>
<path d="M31.3848 88.084L31.938 86.7593C32.0217 86.7943 32.1055 86.8289 32.1894 86.8633L31.6449 88.1916C31.5581 88.1561 31.4714 88.1202 31.3848 88.084Z" stroke="#FECE00" stroke-width="0.5"/>
<path d="M76.2904 80.8142C76.3613 80.7523 76.432 80.6901 76.5026 80.6277L75.5516 79.5523C75.4833 79.6127 75.4149 79.6728 75.3463 79.7327L76.2904 80.8142Z" stroke="#FECE00" stroke-width="0.5"/>
<path d="M78.3531 78.8932L75.9167 76.457L76.1198 76.2539L78.5561 78.6902L78.3531 78.8932Z" stroke="#FECE00" stroke-width="0.5"/>
<path d="M80.2906 76.8399L79.2152 75.8888C79.2657 75.8316 79.3161 75.7744 79.3663 75.717L79.3955 75.6836L80.4771 76.6276C80.4152 76.6985 80.353 76.7693 80.2906 76.8399Z" stroke="#FECE00" stroke-width="0.5"/>
<path d="M82.0886 74.6684L80.9536 73.7894C81.0092 73.7176 81.0646 73.6456 81.1196 73.5735L82.2604 74.4451C82.2034 74.5196 82.1462 74.5941 82.0886 74.6684Z" stroke="#FECE00" stroke-width="0.5"/>
<path d="M83.7399 72.3854L82.5497 71.5827C82.6004 71.5076 82.6508 71.4323 82.7009 71.357L83.8963 72.1519C83.8445 72.2298 83.7924 72.3077 83.7399 72.3854Z" stroke="#FECE00" stroke-width="0.5"/>
<path d="M85.2379 69.9985L85.229 69.9933L85.2271 69.9965L82.2432 68.2738L82.3868 68.0252L85.3707 69.7479L85.3702 69.7487L85.3793 69.754C85.3325 69.8356 85.2854 69.9171 85.2379 69.9985Z" stroke="#FECE00" stroke-width="0.5"/>
<path d="M86.576 67.5169L85.2906 66.8777C85.3311 66.7963 85.3712 66.7149 85.4111 66.6334L86.7007 67.2641C86.6595 67.3485 86.6179 67.4328 86.576 67.5169Z" stroke="#FECE00" stroke-width="0.5"/>
<path d="M87.7471 64.9537L86.4223 64.4005C86.4573 64.3168 86.492 64.233 86.5263 64.1492L87.8547 64.6936C87.8191 64.7804 87.7832 64.8671 87.7471 64.9537Z" stroke="#FECE00" stroke-width="0.5"/>
<path d="M88.7469 62.3188L87.3887 61.8539C87.4181 61.7678 87.4473 61.6817 87.4762 61.5955L88.8375 62.0515C88.8076 62.1407 88.7774 62.2298 88.7469 62.3188Z" stroke="#FECE00" stroke-width="0.5"/>
<path d="M89.6379 59.3492L89.6387 59.3464L86.3106 58.4547L86.2363 58.732L89.5643 59.6238L89.565 59.6214L89.5718 59.6232C89.5963 59.5325 89.6206 59.4417 89.6445 59.3509L89.6379 59.3492Z" stroke="#FECE00" stroke-width="0.5"/>
<path d="M90.2729 56.6038C90.255 56.6959 90.2367 56.7881 90.2182 56.8801L88.8108 56.5967C88.8287 56.5077 88.8464 56.4187 88.8637 56.3296L90.2729 56.6038Z" stroke="#FECE00" stroke-width="0.5"/>
<path d="M90.7048 53.9443C90.698 53.9963 90.6911 54.0483 90.6841 54.1003L89.2613 53.9093C89.2734 53.8192 89.2852 53.7291 89.2967 53.639L90.7207 53.8207C90.7155 53.8619 90.7102 53.9031 90.7048 53.9443Z" stroke="#FECE00" stroke-width="0.5"/>
<path d="M90.9863 51.0147C90.9805 51.1085 90.9744 51.2023 90.968 51.296L89.5357 51.198C89.5419 51.1074 89.5478 51.0168 89.5534 50.9261L90.9863 51.0147Z" stroke="#FECE00" stroke-width="0.5"/>
<path d="M90.9863 45.662L89.5534 45.7507C89.5478 45.66 89.5419 45.5694 89.5357 45.4788L90.968 45.3808C90.9744 45.4745 90.9805 45.5683 90.9863 45.662Z" stroke="#FECE00" stroke-width="0.5"/>
<path d="M90.7207 42.8561L89.2967 43.0378C89.2852 42.9477 89.2734 42.8576 89.2613 42.7675L90.6841 42.5765C90.6966 42.6697 90.7088 42.7628 90.7207 42.8561Z" stroke="#FECE00" stroke-width="0.5"/>
<path d="M90.2729 40.073L88.8637 40.3472C88.8464 40.2581 88.8287 40.1691 88.8108 40.0801L90.2182 39.7967C90.2367 39.8888 90.255 39.9809 90.2729 40.073Z" stroke="#FECE00" stroke-width="0.5"/>
<path d="M89.6445 37.3259C89.6344 37.2876 89.6243 37.2493 89.614 37.2109C89.6083 37.1895 89.6026 37.1681 89.5969 37.1467L89.584 37.099L89.5718 37.0536L89.565 37.0554L89.5643 37.0531L86.2363 37.9448L86.3106 38.2221L89.6386 37.3304L89.6379 37.3277L89.6445 37.3259Z" stroke="#FECE00" stroke-width="0.5"/>
<path d="M88.8375 34.6253L87.4762 35.0813C87.4605 35.0343 87.4447 34.9874 87.4288 34.9406C87.4155 34.9013 87.4021 34.8621 87.3887 34.8229L88.747 34.358C88.7774 34.4471 88.8076 34.5361 88.8375 34.6253Z" stroke="#FECE00" stroke-width="0.5"/>
<path d="M87.8547 31.9832L86.5263 32.5277C86.492 32.4438 86.4573 32.36 86.4223 32.2763L87.7471 31.7231C87.7697 31.7772 87.7922 31.8314 87.8146 31.8856L87.8281 31.9184L87.8547 31.9832Z" stroke="#FECE00" stroke-width="0.5"/>
<path d="M86.7007 29.4127C86.6595 29.3283 86.6179 29.244 86.576 29.1599L85.2906 29.7992C85.3311 29.8805 85.3712 29.9619 85.4111 30.0435L86.7007 29.4127Z" stroke="#FECE00" stroke-width="0.5"/>
<path d="M85.229 26.6835L85.2271 26.6803L82.2433 28.403L82.3868 28.6517L85.3707 26.929L85.3702 26.9281L85.3793 26.9228C85.3325 26.8412 85.2854 26.7597 85.238 26.6783L85.229 26.6835Z" stroke="#FECE00" stroke-width="0.5"/>
<path d="M83.8964 24.525L82.7009 25.3199C82.6508 25.2445 82.6004 25.1692 82.5497 25.0941L83.7399 24.2914C83.7924 24.3691 83.8445 24.447 83.8964 24.525Z" stroke="#FECE00" stroke-width="0.5"/>
<path d="M82.2604 22.2318L81.1197 23.1033C81.0646 23.0312 81.0092 22.9593 80.9536 22.8874L82.0886 22.0084C82.1462 22.0827 82.2034 22.1572 82.2604 22.2318Z" stroke="#FECE00" stroke-width="0.5"/>
<path d="M80.4771 20.0492C80.4152 19.9783 80.353 19.9076 80.2906 19.837L79.2152 20.788C79.2756 20.8563 79.3357 20.9247 79.3955 20.9932L80.4771 20.0492Z" stroke="#FECE00" stroke-width="0.5"/>
<path d="M0.338745 48.482V48.1949L8.37749 48.1949L8.37756 48.482H0.338745Z" stroke="#FECE00" stroke-width="0.5"/>
<path d="M87.6235 48.1949L87.6235 48.482H95.6623V48.1949L87.6235 48.1949Z" stroke="#FECE00" stroke-width="0.5"/>
<path fill-rule="evenodd" clip-rule="evenodd" d="M23.9129 49.7298L19.5642 61.8488H23.9129V79.4348H40.2261L40.2417 87.8709L67.9193 82.8557V68.8409L69.6986 67.2039C70.4051 66.5539 71.5104 64.8684 72.7555 61.9039C73.9256 59.1176 74.9762 55.8056 75.8642 52.5439C76.4249 50.4843 76.9085 48.4903 77.3076 46.7265H23.9129V49.7298ZM18.4032 41.2168H84.0479C84.0479 41.2168 83.6664 43.4507 82.9517 46.7265C81.3211 54.1992 77.9562 67.0937 73.4289 71.2587V87.4567L34.7442 94.4665V94.3962L34.7266 84.9444H18.4032V67.3585H11.7335L18.4032 48.7712V41.2168Z" fill="white"/>
<path fill-rule="evenodd" clip-rule="evenodd" d="M74.2918 9.34574C73.6113 8.09764 72.2097 7.33637 71.6217 7.13604L72.3324 5.04993C73.2151 5.35068 75.1855 6.38101 76.2268 8.29067L74.2918 9.34574Z" fill="#FECE00"/>
<path fill-rule="evenodd" clip-rule="evenodd" d="M65.5216 5.52092C67.144 4.56457 68.8727 4.36214 70.0231 4.48278L69.7932 6.67463C69.0573 6.59745 67.8113 6.72949 66.6407 7.41951C65.5089 8.08662 64.386 9.30944 63.8724 11.5442L61.7246 11.0506C62.3715 8.2356 63.8602 6.50017 65.5216 5.52092Z" fill="#FECE00"/>
<path fill-rule="evenodd" clip-rule="evenodd" d="M60.2974 4.64652C62.9553 0.919758 67.6986 -1.28626 73.2684 0.814906C78.7349 2.87707 80.9718 7.15992 80.9975 11.3733C81.0222 15.418 78.9997 19.5222 75.8769 21.4045C73.9768 22.5499 72.9586 23.5221 72.3634 24.3217C71.7843 25.0994 71.5359 25.8026 71.3024 26.5971L69.1796 34.5197L58.2994 31.6043L58.7272 30.0078L60.3238 30.4356C58.7272 30.0078 58.7272 30.0078 58.7272 30.0078L60.4273 23.6629C60.6729 22.7465 60.6503 21.6318 60.423 20.4993C60.1968 19.3727 59.7921 18.3503 59.3968 17.6656C56.9904 13.4975 57.708 8.2771 60.2974 4.64652ZM62.3482 29.2668L66.842 30.4709L68.1193 25.7041L68.1247 25.6857C68.399 24.7496 68.78 23.599 69.7118 22.3475C70.6317 21.1118 72.0152 19.8723 74.1703 18.5733C76.1166 17.4001 77.7107 14.496 77.6917 11.3935C77.6738 8.45979 76.207 5.45665 72.1016 3.90794C68.0996 2.39823 64.8823 3.91119 62.9888 6.56607C61.0267 9.31714 60.6018 13.1411 62.2598 16.0127C62.847 17.0299 63.3721 18.3944 63.6641 19.8486C63.9549 21.297 64.0389 22.9571 63.6205 24.5185L62.3482 29.2668Z" fill="#FECE00"/>
<path fill-rule="evenodd" clip-rule="evenodd" d="M68.8469 29.1758L61.1599 27.116L61.8729 24.4551L69.5599 26.5148L68.8469 29.1758Z" fill="#FECE00"/>
<path fill-rule="evenodd" clip-rule="evenodd" d="M61.3286 33.5432C60.8583 32.8845 60.6736 32.0376 60.9199 31.1184L62.7826 31.6175C62.6856 31.9794 62.7621 32.2323 62.898 32.4226C63.0511 32.637 63.3217 32.8235 63.6602 32.9141C63.9986 33.0048 64.3262 32.9787 64.566 32.8696C64.7788 32.7727 64.9715 32.5919 65.0685 32.23L66.9312 32.7291C66.6849 33.6483 66.1015 34.2894 65.3648 34.6247C64.6551 34.9477 63.8598 34.964 63.1611 34.7768C62.4624 34.5896 61.7817 34.1778 61.3286 33.5432Z" fill="#FECE00"/>
</svg>
