<svg width="17"
     height="12"
     viewBox="0 0 17 12"
     fill="none"
     xmlns="http://www.w3.org/2000/svg">
  <path fill-rule="evenodd"
        clip-rule="evenodd"
        d="M7.73429 11.5238C7.76149 11.6486 7.79374 11.8206 7.79374 11.9846H6.04374L6.04384 11.9959C6.04389 11.9986 6.04384 12 6.04384 12C6.04384 12 6.04349 11.9984 6.04299 11.9949C6.04129 11.9835 6.03664 11.9524 6.02444 11.8964C6.00549 11.8095 5.97639 11.6984 5.93899 11.5718C5.86394 11.3179 5.76634 11.0381 5.68039 10.8256C5.20559 9.65177 4.40294 8.65186 3.37714 7.94993C2.40769 7.28661 1.27934 6.91686 0.120444 6.87831H-0.000604311V5.1245C1.2287 5.1245 2.35154 4.7518 3.37714 4.05008C4.40294 3.34816 5.20559 2.34825 5.68039 1.17445C5.76634 0.96191 5.86394 0.682071 5.93899 0.428182C5.97639 0.301537 6.00549 0.190492 6.02444 0.103595C6.03664 0.0476477 6.04129 0.0164486 6.04299 0.00504903C6.04349 0.00164917 6.04384 -3.57628e-07 6.04384 -3.57628e-07C6.04384 -3.57628e-07 6.04389 0.00139928 6.04384 0.00409917C6.04379 0.00669906 6.04374 0.0104994 6.04374 0.0154492H7.79374C7.79374 0.179442 7.76149 0.351385 7.73429 0.476179C7.70354 0.617324 7.66229 0.771568 7.61724 0.924062C7.52734 1.2284 7.41134 1.56198 7.30269 1.83057C6.77809 3.12757 5.93554 4.26292 4.85834 5.12839L16.0021 5.12839V6.87831L4.86669 6.87831C5.93989 7.74298 6.77944 8.8758 7.30269 10.1694C7.41134 10.438 7.52734 10.7716 7.61724 11.0759C7.66229 11.2284 7.70354 11.3827 7.73429 11.5238Z"
        fill="#FECE00"/>
</svg>
