<svg width="17" height="12" viewBox="0 0 17 12" fill="none" xmlns="http://www.w3.org/2000/svg">
<path fill-rule="evenodd" clip-rule="evenodd" d="M9.26571 0.476172C9.23851 0.351397 9.20626 0.179425 9.20626 0.0154247H10.9563L10.9562 0.0040941C10.9561 0.00140844 10.9562 0 10.9562 0C10.9562 0 10.9565 0.00163173 10.957 0.0050591C10.9587 0.0164609 10.9634 0.0476285 10.9756 0.10361C10.9945 0.190504 11.0236 0.301552 11.061 0.428172C11.1361 0.682057 11.2337 0.96191 11.3196 1.17445C11.7944 2.34823 12.5971 3.34814 13.6229 4.05007C14.5923 4.71339 15.7207 5.08314 16.8796 5.12169H17.0006V6.8755C15.7713 6.8755 14.6485 7.2482 13.6229 7.94992C12.5971 8.65184 11.7944 9.65175 11.3196 10.8255C11.2337 11.0381 11.1361 11.3179 11.061 11.5718C11.0236 11.6985 10.9945 11.8095 10.9756 11.8964C10.9634 11.9524 10.9587 11.9836 10.957 11.995C10.9565 11.9984 10.9562 12 10.9562 12C10.9562 12 10.9561 11.9986 10.9562 11.9959C10.9562 11.9933 10.9563 11.9895 10.9563 11.9846H9.20626C9.20626 11.8206 9.23851 11.6486 9.26571 11.5238C9.29646 11.3827 9.33771 11.2284 9.38276 11.0759C9.47266 10.7716 9.58866 10.438 9.69731 10.1694C10.2219 8.87243 11.0645 7.73708 12.1417 6.87161H0.997925V5.12169H12.1333C11.0601 4.25702 10.2206 3.1242 9.69731 1.83059C9.58866 1.56197 9.47266 1.22837 9.38276 0.924052C9.33771 0.771568 9.29646 0.617319 9.26571 0.476172Z" fill="#FECE00"/>
</svg>
